<?xml version="1.0" encoding="UTF-8" standalone="no"?>
<svg
   xmlns:dc="http://purl.org/dc/elements/1.1/"
   xmlns:cc="http://creativecommons.org/ns#"
   xmlns:rdf="http://www.w3.org/1999/02/22-rdf-syntax-ns#"
   xmlns:svg="http://www.w3.org/2000/svg"
   xmlns="http://www.w3.org/2000/svg"
   xmlns:sodipodi="http://sodipodi.sourceforge.net/DTD/sodipodi-0.dtd"
   xmlns:inkscape="http://www.inkscape.org/namespaces/inkscape"
   enable-background="new 0 0 48 48"
   id="Layer_1"
   version="1.1"
   viewBox="0 0 48 48"
   xml:space="preserve"
   sodipodi:docname="Instagram_circle.svg"
   inkscape:version="0.92.4 (5da689c313, 2019-01-14)"><metadata
     id="metadata11"><rdf:RDF><cc:Work
         rdf:about=""><dc:format>image/svg+xml</dc:format><dc:type
           rdf:resource="http://purl.org/dc/dcmitype/StillImage" /></cc:Work></rdf:RDF></metadata><defs
     id="defs9" /><sodipodi:namedview
     pagecolor="#ffffff"
     bordercolor="#666666"
     borderopacity="1"
     objecttolerance="10"
     gridtolerance="10"
     guidetolerance="10"
     inkscape:pageopacity="0"
     inkscape:pageshadow="2"
     inkscape:window-width="1920"
     inkscape:window-height="1016"
     id="namedview7"
     showgrid="false"
     inkscape:zoom="13.906433"
     inkscape:cx="29.670141"
     inkscape:cy="23.964811"
     inkscape:window-x="0"
     inkscape:window-y="27"
     inkscape:window-maximized="1"
     inkscape:current-layer="Layer_1" /><circle
     cx="24"
     cy="24"
     fill="#444444"
     r="24"
     id="circle2"
     style="fill:#280b0b" /><path
     d="M 34.473793,7.0118644 H 13.627901 c -3.619079,0 -6.5143417,2.8952629 -6.5143417,6.5143426 v 6.94863 13.897262 c 0,3.619079 2.8952627,6.514342 6.5143417,6.514342 h 20.845892 c 3.619079,0 6.514343,-2.895263 6.514343,-6.514342 v -13.897262 -6.94863 c 0,-3.6190797 -2.895264,-6.5143426 -6.514343,-6.5143426 z m 1.881922,3.9086046 h 0.723815 v 0.723816 5.066711 h -5.790526 v -5.790527 z m -17.082052,9.554368 c 1.013342,-1.447631 2.895263,-2.460973 4.777185,-2.460973 1.88192,0 3.763841,1.013342 4.777184,2.460973 0.723815,1.013342 1.158104,2.171447 1.158104,3.474315 0,3.329553 -2.750499,5.93529 -5.935288,5.93529 -3.184789,0 -5.93529,-2.605737 -5.93529,-5.93529 0,-1.302868 0.43429,-2.460973 1.158105,-3.474315 z m 18.384921,13.897262 c 0,1.737157 -1.447632,3.184789 -3.184791,3.184789 H 13.627901 c -1.737158,0 -3.184789,-1.447632 -3.184789,-3.184789 V 20.474837 h 5.066709 c -0.434288,1.013342 -0.723815,2.31621 -0.723815,3.474315 0,5.066711 4.198131,9.264842 9.264842,9.264842 5.066709,0 9.26484,-4.198131 9.26484,-9.264842 0,-1.158105 -0.289525,-2.460973 -0.723815,-3.474315 h 5.066711 z"
     id="path4"
     inkscape:connector-curvature="0"
     style="fill:#363636;stroke-width:1.44763148;fill-opacity:0.91764706" /><path
     style="fill:#ececec;fill-opacity:0.91764706;stroke-width:0.07190917"
     d="M 22.587088,47.977244 C 19.26224,47.785264 15.760147,46.815954 12.871219,45.288084 7.3337647,42.359485 3.1914721,37.496197 1.2308333,31.621606 0.34512654,28.967796 0.01168198,26.883035 0.01168198,23.999235 c 0,-2.883801 0.33344456,-4.968561 1.21915132,-7.622372 C 3.6017048,9.2731082 9.1370516,3.706402 16.254955,1.2676256 c 5.344094,-1.83102377 11.299859,-1.69345144 16.543235,0.3821325 5.574697,2.2067373 10.143733,6.4234076 12.763125,11.7788299 1.176286,2.404951 1.859554,4.668227 2.279431,7.550462 0.0977,0.67066 0.125706,1.343534 0.125706,3.020185 0,2.30267 -0.05233,2.880308 -0.436024,4.812984 -1.194452,6.016484 -4.843162,11.501546 -9.98651,15.0126 -3.700828,2.526333 -7.740741,3.890515 -12.306533,4.155621 -1.311816,0.07617 -1.275035,0.07621 -2.650297,-0.0032 z m 13.518923,-7.312111 c 0.798175,-0.22317 1.921138,-0.795583 2.497977,-1.273305 0.97757,-0.809596 1.704611,-1.922982 2.118577,-3.244377 l 0.20136,-0.64275 0.02155,-11.181875 c 0.01553,-8.056941 -0.0012,-11.3417 -0.06,-11.753773 C 40.70197,11.282173 40.123964,10.075439 39.239709,9.1331104 38.394427,8.2323136 37.589841,7.7224482 36.357693,7.3067801 L 35.746465,7.1005813 24.312908,7.0805352 C 14.107791,7.0626429 12.81845,7.0727431 12.312516,7.1745435 9.7933112,7.6814384 7.7966404,9.66967 7.2761245,12.189649 7.1755077,12.676765 7.1625727,14.012006 7.1625727,23.911087 c 0,7.490475 0.024903,11.312298 0.075575,11.598385 0.3247914,1.833718 1.4048304,3.412894 3.0095993,4.400477 0.595844,0.366685 1.633495,0.756723 2.320002,0.872055 0.216517,0.03637 5.299466,0.05998 11.67325,0.0542 l 11.289739,-0.01023 z"
     id="path3718"
     inkscape:connector-curvature="0" /><path
     style="fill:#ececec;fill-opacity:0.91764706;stroke-width:0.07190917"
     d="m 12.590913,37.385864 c -1.103795,-0.410496 -1.903521,-1.348166 -2.11903,-2.48454 -0.04679,-0.246713 -0.0734,-2.938343 -0.0734,-7.42431 v -7.037283 h 2.552775 c 1.404027,0 2.552776,0.02036 2.552776,0.04523 0,0.02488 -0.08039,0.2681 -0.178651,0.540493 -0.654658,1.814866 -0.663801,3.931169 -0.02522,5.838588 0.759984,2.270059 2.468537,4.23578 4.626547,5.322922 3.003568,1.513111 6.465187,1.281869 9.311407,-0.622019 0.693637,-0.463987 1.960791,-1.731141 2.424778,-2.424778 1.619591,-2.42121 2.033464,-5.242342 1.166245,-7.949621 -0.115897,-0.361805 -0.210721,-0.67875 -0.210721,-0.704322 0,-0.02557 1.132569,-0.0465 2.516821,-0.0465 h 2.51682 v 7.219296 c 0,6.994584 -0.0044,7.233662 -0.142541,7.680792 -0.289271,0.93655 -1.132498,1.781646 -2.06513,2.069706 -0.460516,0.14224 -0.646339,0.144526 -11.444667,0.140841 l -10.97655,-0.0037 z"
     id="path3720"
     inkscape:connector-curvature="0" /><path
     style="fill:#ececec;fill-opacity:0.91764706;stroke-width:0.07190917"
     d="m 23.301166,29.860687 c -1.273017,-0.178526 -2.402661,-0.725232 -3.326876,-1.610085 -2.413227,-2.310448 -2.504278,-5.943613 -0.209496,-8.359422 1.411115,-1.485537 3.469814,-2.170245 5.360124,-1.782738 2.316286,0.47483 4.14827,2.227812 4.728428,4.524519 0.172436,0.682632 0.172068,1.980506 -7.56e-4,2.660639 -0.368052,1.44846 -1.256509,2.740018 -2.449443,3.560778 -1.127785,0.775936 -2.807078,1.187905 -4.101984,1.006309 z"
     id="path3722"
     inkscape:connector-curvature="0" /><path
     style="fill:#ececec;fill-opacity:0.91764706;stroke-width:0.07190917"
     d="m 31.252143,13.788134 v -2.912322 h 2.912321 2.912321 v 2.912322 2.912321 h -2.912321 -2.912321 z"
     id="path3724"
     inkscape:connector-curvature="0" /></svg>