<?xml version="1.0" encoding="UTF-8" standalone="no"?>
<!-- Created with Inkscape (http://www.inkscape.org/) -->

<svg
   xmlns:dc="http://purl.org/dc/elements/1.1/"
   xmlns:cc="http://creativecommons.org/ns#"
   xmlns:rdf="http://www.w3.org/1999/02/22-rdf-syntax-ns#"
   xmlns:svg="http://www.w3.org/2000/svg"
   xmlns="http://www.w3.org/2000/svg"
   xmlns:sodipodi="http://sodipodi.sourceforge.net/DTD/sodipodi-0.dtd"
   xmlns:inkscape="http://www.inkscape.org/namespaces/inkscape"
   version="1.1"
   id="svg2"
   xml:space="preserve"
   width="4007.76"
   height="2622.6667"
   viewBox="0 0 4007.76 2622.6667"
   sodipodi:docname="agileteam.svg"
   inkscape:version="0.92.4 (5da689c313, 2019-01-14)"><metadata
     id="metadata8"><rdf:RDF><cc:Work
         rdf:about=""><dc:format>image/svg+xml</dc:format><dc:type
           rdf:resource="http://purl.org/dc/dcmitype/StillImage" /><dc:title></dc:title></cc:Work></rdf:RDF></metadata><defs
     id="defs6"><clipPath
       clipPathUnits="userSpaceOnUse"
       id="clipPath42"><path
         d="m 5963.19,17052.3 c -421.55,0 -763.29,341.7 -763.29,763.2 0,421.6 341.74,763.3 763.29,763.3 421.56,0 763.29,-341.7 763.29,-763.3 0,-421.5 -341.73,-763.2 -763.29,-763.2 z m 993.37,1020.6 c -24.15,93.5 -61.2,181.8 -109.05,262.9 l 111.03,167 -154.04,154.1 -154.03,154 -166.97,-111 c -81.17,47.8 -169.46,84.9 -262.94,109 l -39.53,196.4 h -217.84 -217.83 l -39.53,-196.4 c -93.49,-24.1 -181.78,-61.2 -262.94,-109 l -166.97,111 -154.04,-154 -154.03,-154.1 111.04,-167 c -47.86,-81.1 -84.92,-169.4 -109.07,-262.9 l -196.41,-39.5 v -217.9 -217.8 l 196.41,-39.5 c 24.15,-93.5 61.21,-181.8 109.07,-263 l -111.04,-166.9 154.03,-154.1 154.04,-154 166.97,111 c 81.16,-47.8 169.45,-84.9 262.94,-109 l 39.53,-196.4 h 217.83 217.84 l 39.53,196.4 c 93.48,24.1 181.77,61.2 262.94,109 l 166.97,-111 154.03,154 154.04,154.1 -111.03,166.9 c 47.85,81.2 84.9,169.5 109.05,263 l 196.42,39.5 v 217.8 217.9 z"
         id="path40"
         inkscape:connector-curvature="0" /></clipPath><linearGradient
       x1="0"
       y1="0"
       x2="1"
       y2="0"
       gradientUnits="userSpaceOnUse"
       gradientTransform="matrix(2379.57,0,0,-2379.57,4773.41,17815.5)"
       spreadMethod="pad"
       id="linearGradient50"><stop
         style="stop-opacity:1;stop-color:#ff9f55"
         offset="0"
         id="stop46" /><stop
         style="stop-opacity:1;stop-color:#ffd255"
         offset="1"
         id="stop48" /></linearGradient><clipPath
       clipPathUnits="userSpaceOnUse"
       id="clipPath60"><path
         d="m 6946.38,15856.5 c -193.26,0 -349.93,156.7 -349.93,349.9 0,193.3 156.67,350 349.93,350 193.25,0 349.92,-156.7 349.92,-350 0,-193.2 -156.67,-349.9 -349.92,-349.9 z m 455.4,467.9 c -11.07,42.9 -28.06,83.4 -49.99,120.6 l 50.9,76.5 -70.62,70.6 -70.61,70.7 -76.56,-50.9 c -37.2,21.9 -77.67,38.9 -120.54,50 l -18.12,90 h -99.86 -99.87 l -18.12,-90 c -42.86,-11.1 -83.33,-28.1 -120.55,-50 l -76.54,50.9 -70.62,-70.7 -70.61,-70.6 50.9,-76.5 c -21.95,-37.2 -38.93,-77.7 -50,-120.6 l -90.04,-18.1 v -99.9 -99.8 l 90.04,-18.1 c 11.07,-42.9 28.05,-83.4 50,-120.6 l -50.9,-76.5 70.61,-70.6 70.62,-70.7 76.54,50.9 c 37.22,-21.9 77.69,-38.9 120.55,-50 l 18.12,-90 h 99.87 99.86 l 18.12,90 c 42.87,11.1 83.34,28.1 120.54,50 l 76.56,-50.9 70.61,70.7 70.62,70.6 -50.9,76.5 c 21.93,37.2 38.92,77.7 49.99,120.6 l 90.05,18.1 v 99.8 99.9 z"
         id="path58"
         inkscape:connector-curvature="0" /></clipPath><linearGradient
       x1="0"
       y1="0"
       x2="1"
       y2="0"
       gradientUnits="userSpaceOnUse"
       gradientTransform="matrix(1090.9,0,0,-1090.9,6400.93,16206.5)"
       spreadMethod="pad"
       id="linearGradient68"><stop
         style="stop-opacity:1;stop-color:#ff9f55"
         offset="0"
         id="stop64" /><stop
         style="stop-opacity:1;stop-color:#ffd255"
         offset="1"
         id="stop66" /></linearGradient><clipPath
       clipPathUnits="userSpaceOnUse"
       id="clipPath176"><path
         d="M 9459.9,2473 H 9305.19 V 15185.2 H 9459.9 Z"
         id="path174"
         inkscape:connector-curvature="0" /></clipPath><linearGradient
       x1="0"
       y1="0"
       x2="1"
       y2="0"
       gradientUnits="userSpaceOnUse"
       gradientTransform="matrix(154.717,0,0,-154.717,9305.19,8829.1)"
       spreadMethod="pad"
       id="linearGradient182"><stop
         style="stop-opacity:1;stop-color:#ff9f55"
         offset="0"
         id="stop178" /><stop
         style="stop-opacity:1;stop-color:#ffd255"
         offset="1"
         id="stop180" /></linearGradient><clipPath
       clipPathUnits="userSpaceOnUse"
       id="clipPath192"><path
         d="m 16249.8,2473 h -154.7 v 12712.2 h 154.7 z"
         id="path190"
         inkscape:connector-curvature="0" /></clipPath><linearGradient
       x1="0"
       y1="0"
       x2="1"
       y2="0"
       gradientUnits="userSpaceOnUse"
       gradientTransform="matrix(154.707,0,0,-154.707,16095.1,8829.1)"
       spreadMethod="pad"
       id="linearGradient198"><stop
         style="stop-opacity:1;stop-color:#ff9f55"
         offset="0"
         id="stop194" /><stop
         style="stop-opacity:1;stop-color:#ffd255"
         offset="1"
         id="stop196" /></linearGradient><clipPath
       clipPathUnits="userSpaceOnUse"
       id="clipPath208"><path
         d="m 14920,14439.4 h -4531.4 v 480.9 H 14920 Z"
         id="path206"
         inkscape:connector-curvature="0" /></clipPath><linearGradient
       x1="0"
       y1="0"
       x2="1"
       y2="0"
       gradientUnits="userSpaceOnUse"
       gradientTransform="matrix(4531.38,0,0,-4531.38,10388.6,14679.9)"
       spreadMethod="pad"
       id="linearGradient214"><stop
         style="stop-opacity:1;stop-color:#ff9f55"
         offset="0"
         id="stop210" /><stop
         style="stop-opacity:1;stop-color:#ffd255"
         offset="1"
         id="stop212" /></linearGradient><clipPath
       clipPathUnits="userSpaceOnUse"
       id="clipPath42-6"><path
         d="m 5963.19,17052.3 c -421.55,0 -763.29,341.7 -763.29,763.2 0,421.6 341.74,763.3 763.29,763.3 421.56,0 763.29,-341.7 763.29,-763.3 0,-421.5 -341.73,-763.2 -763.29,-763.2 z m 993.37,1020.6 c -24.15,93.5 -61.2,181.8 -109.05,262.9 l 111.03,167 -154.04,154.1 -154.03,154 -166.97,-111 c -81.17,47.8 -169.46,84.9 -262.94,109 l -39.53,196.4 h -217.84 -217.83 l -39.53,-196.4 c -93.49,-24.1 -181.78,-61.2 -262.94,-109 l -166.97,111 -154.04,-154 -154.03,-154.1 111.04,-167 c -47.86,-81.1 -84.92,-169.4 -109.07,-262.9 l -196.41,-39.5 v -217.9 -217.8 l 196.41,-39.5 c 24.15,-93.5 61.21,-181.8 109.07,-263 l -111.04,-166.9 154.03,-154.1 154.04,-154 166.97,111 c 81.16,-47.8 169.45,-84.9 262.94,-109 l 39.53,-196.4 h 217.83 217.84 l 39.53,196.4 c 93.48,24.1 181.77,61.2 262.94,109 l 166.97,-111 154.03,154 154.04,154.1 -111.03,166.9 c 47.85,81.2 84.9,169.5 109.05,263 l 196.42,39.5 v 217.8 217.9 z"
         id="path40-7"
         inkscape:connector-curvature="0" /></clipPath><clipPath
       clipPathUnits="userSpaceOnUse"
       id="clipPath60-5"><path
         d="m 6946.38,15856.5 c -193.26,0 -349.93,156.7 -349.93,349.9 0,193.3 156.67,350 349.93,350 193.25,0 349.92,-156.7 349.92,-350 0,-193.2 -156.67,-349.9 -349.92,-349.9 z m 455.4,467.9 c -11.07,42.9 -28.06,83.4 -49.99,120.6 l 50.9,76.5 -70.62,70.6 -70.61,70.7 -76.56,-50.9 c -37.2,21.9 -77.67,38.9 -120.54,50 l -18.12,90 h -99.86 -99.87 l -18.12,-90 c -42.86,-11.1 -83.33,-28.1 -120.55,-50 l -76.54,50.9 -70.62,-70.7 -70.61,-70.6 50.9,-76.5 c -21.95,-37.2 -38.93,-77.7 -50,-120.6 l -90.04,-18.1 v -99.9 -99.8 l 90.04,-18.1 c 11.07,-42.9 28.05,-83.4 50,-120.6 l -50.9,-76.5 70.61,-70.6 70.62,-70.7 76.54,50.9 c 37.22,-21.9 77.69,-38.9 120.55,-50 l 18.12,-90 h 99.87 99.86 l 18.12,90 c 42.87,11.1 83.34,28.1 120.54,50 l 76.56,-50.9 70.61,70.7 70.62,70.6 -50.9,76.5 c 21.93,37.2 38.92,77.7 49.99,120.6 l 90.05,18.1 v 99.8 99.9 z"
         id="path58-3"
         inkscape:connector-curvature="0" /></clipPath><clipPath
       clipPathUnits="userSpaceOnUse"
       id="clipPath176-5"><path
         d="M 9459.9,2473 H 9305.19 V 15185.2 H 9459.9 Z"
         id="path174-6"
         inkscape:connector-curvature="0" /></clipPath><clipPath
       clipPathUnits="userSpaceOnUse"
       id="clipPath192-1"><path
         d="m 16249.8,2473 h -154.7 v 12712.2 h 154.7 z"
         id="path190-2"
         inkscape:connector-curvature="0" /></clipPath><linearGradient
       x1="0"
       y1="0"
       x2="1"
       y2="0"
       gradientUnits="userSpaceOnUse"
       gradientTransform="matrix(154.707,0,0,-154.707,16095.1,8829.1)"
       spreadMethod="pad"
       id="linearGradient198-7"><stop
         style="stop-opacity:1;stop-color:#ff9f55"
         offset="0"
         id="stop194-0" /><stop
         style="stop-opacity:1;stop-color:#ffd255"
         offset="1"
         id="stop196-9" /></linearGradient></defs><sodipodi:namedview
     pagecolor="#ffffff"
     bordercolor="#666666"
     borderopacity="1"
     objecttolerance="10"
     gridtolerance="10"
     guidetolerance="10"
     inkscape:pageopacity="0"
     inkscape:pageshadow="2"
     inkscape:window-width="1920"
     inkscape:window-height="1016"
     id="namedview4"
     showgrid="false"
     inkscape:zoom="0.25031579"
     inkscape:cx="1580.0781"
     inkscape:cy="1226.8993"
     inkscape:window-x="0"
     inkscape:window-y="27"
     inkscape:window-maximized="1"
     inkscape:current-layer="g10" /><g
     id="g10"
     inkscape:groupmode="layer"
     inkscape:label="ink_ext_XXXXXX"
     transform="matrix(1.3333333,0,0,-1.3333333,0,2622.6667)"><g
       id="g12"
       transform="matrix(0.1,0,0,0.1,152.81588,188.34742)"><g
         id="g32"
         transform="scale(1.39234)"><path
           d="M 15698.2,2046.05 H 2583.58 c -332.36,0 -601.78,269.47 -601.78,601.79 V 9942.5 c 0,332.4 269.42,601.8 601.78,601.8 H 15698.2 c 332.3,0 601.8,-269.4 601.8,-601.8 V 2647.84 c 0,-332.32 -269.5,-601.79 -601.8,-601.79"
           style="fill:#005ca6;fill-opacity:1;fill-rule:nonzero;stroke:none"
           id="path34"
           inkscape:connector-curvature="0" /></g><g
         id="g36"><g
           id="g38"
           clip-path="url(#clipPath42-6)" /></g><g
         id="g54"><g
           id="g56"
           clip-path="url(#clipPath60-5)" /></g><path
         d="M 8592.4,8738.9 H 6132.62 v 2459.8 H 8592.4 V 8738.9"
         style="fill:#4ba2f4;fill-opacity:1;fill-rule:nonzero;stroke:none"
         id="path84"
         inkscape:connector-curvature="0" /><path
         d="M 5945.67,11387.4 H 3485.89 v 2459.8 h 2459.78 v -2459.8"
         style="fill:#f0f0f0;fill-opacity:1;fill-rule:nonzero;stroke:none"
         id="path86"
         inkscape:connector-curvature="0" /><path
         d="m 12752.6,8750.5 h -2459.8 v 2459.8 h 2459.8 V 8750.5"
         style="fill:#f0f0f0;fill-opacity:1;fill-rule:nonzero;stroke:none"
         id="path88"
         inkscape:connector-curvature="0" /><path
         d="m 15399.3,8750.5 h -2459.8 v 2459.8 h 2459.8 V 8750.5"
         style="fill:#4ba2f4;fill-opacity:1;fill-rule:nonzero;stroke:none"
         id="path90"
         inkscape:connector-curvature="0" /><path
         d="M 8592.4,6103.8 H 6132.62 V 8563.6 H 8592.4 V 6103.8"
         style="fill:#f0f0f0;fill-opacity:1;fill-rule:nonzero;stroke:none"
         id="path92"
         inkscape:connector-curvature="0" /><path
         d="M 8592.4,3457 H 6132.62 V 5916.8 H 8592.4 V 3457"
         style="fill:#ffdf69;fill-opacity:1;fill-rule:nonzero;stroke:none"
         id="path94"
         inkscape:connector-curvature="0" /><path
         d="m 12752.6,3457 h -2459.8 v 2459.8 h 2459.8 V 3457"
         style="fill:#f0f0f0;fill-opacity:1;fill-rule:nonzero;stroke:none"
         id="path96"
         inkscape:connector-curvature="0" /><path
         d="M 5945.67,6097.9 H 3485.89 V 8557.7 H 5945.67 V 6097.9"
         style="fill:#f0f0f0;fill-opacity:1;fill-rule:nonzero;stroke:none"
         id="path98"
         inkscape:connector-curvature="0" /><path
         d="m 15399.2,5916.8 c 0,0 -1.7,-1138.6 -268.6,-2103.8 l -568.9,-356 H 12556 c 381.1,1014 383.4,2459.8 383.4,2459.8 h 2459.8"
         style="fill:#ffdf69;fill-opacity:1;fill-rule:nonzero;stroke:none"
         id="path100"
         inkscape:connector-curvature="0" /><path
         d="m 14561.7,3457 v 364.2 h 568.9 z"
         style="fill:#deba35;fill-opacity:1;fill-rule:nonzero;stroke:none"
         id="path102"
         inkscape:connector-curvature="0" /><path
         d="m 12752.4,8563.6 c 0,0 -1.7,-1138.6 -268.6,-2103.7 L 11915,6103.8 H 9909.3 c 381.1,1014.1 383.4,2459.8 383.4,2459.8 h 2459.7"
         style="fill:#4ba2f4;fill-opacity:1;fill-rule:nonzero;stroke:none"
         id="path104"
         inkscape:connector-curvature="0" /><path
         d="m 11915,6103.8 v 364.3 h 568.8 z"
         style="fill:#375eab;fill-opacity:1;fill-rule:nonzero;stroke:none"
         id="path106"
         inkscape:connector-curvature="0" /><path
         d="m 15399.3,11385.6 h -2459.8 v 2459.8 h 2459.8 v -2459.8"
         style="fill:#f0f0f0;fill-opacity:1;fill-rule:nonzero;stroke:none"
         id="path108"
         inkscape:connector-curvature="0" /><path
         d="m 12752.4,13845.4 c 0,0 -1.7,-1138.6 -268.6,-2103.8 l -568.8,-356 H 9909.3 c 381.1,1014.1 383.4,2459.8 383.4,2459.8 h 2459.7"
         style="fill:#ffdf69;fill-opacity:1;fill-rule:nonzero;stroke:none"
         id="path110"
         inkscape:connector-curvature="0" /><path
         d="m 11915,11385.6 v 364.3 h 568.8 z"
         style="fill:#deba35;fill-opacity:1;fill-rule:nonzero;stroke:none"
         id="path112"
         inkscape:connector-curvature="0" /><path
         d="m 5945.57,5916.8 c 0,0 -1.73,-1138.6 -268.62,-2103.8 L 5108.1,3457 H 3102.42 c 381.06,1014 383.35,2459.8 383.35,2459.8 h 2459.8"
         style="fill:#f0f0f0;fill-opacity:1;fill-rule:nonzero;stroke:none"
         id="path114"
         inkscape:connector-curvature="0" /><path
         d="m 5108.1,3457 v 364.2 h 568.85 z"
         style="fill:#c9c9c9;fill-opacity:1;fill-rule:nonzero;stroke:none"
         id="path116"
         inkscape:connector-curvature="0" /><g
         id="g118"
         transform="scale(1.19052)"><path
           d="M 16300,7340.44 H 14233.8 V 9406.56 H 16300 V 7340.44"
           style="fill:#ffdf69;fill-opacity:1;fill-rule:nonzero;stroke:none"
           id="path120"
           inkscape:connector-curvature="0" /></g><g
         id="g122"
         transform="scale(1.19052)"><path
           d="M 16300,9565.08 H 14233.8 V 11631.2 H 16300 V 9565.08"
           style="fill:#f0f0f0;fill-opacity:1;fill-rule:nonzero;stroke:none"
           id="path124"
           inkscape:connector-curvature="0" /></g><g
         id="g126"
         transform="scale(1.35289)"><path
           d="M 16300,8417.07 H 14481.9 V 10235.2 H 16300 V 8417.07"
           style="fill:#f0f0f0;fill-opacity:1;fill-rule:nonzero;stroke:none"
           id="path128"
           inkscape:connector-curvature="0" /></g><g
         id="g130"
         transform="scale(1.35289)"><path
           d="M 16300,4511.68 H 14481.9 V 6329.86 H 16300 V 4511.68"
           style="fill:#f0f0f0;fill-opacity:1;fill-rule:nonzero;stroke:none"
           id="path132"
           inkscape:connector-curvature="0" /></g><g
         id="g134"
         transform="scale(1.35289)"><path
           d="M 16300,2555.27 H 14481.9 V 4373.45 H 16300 V 2555.27"
           style="fill:#ffdf69;fill-opacity:1;fill-rule:nonzero;stroke:none"
           id="path136"
           inkscape:connector-curvature="0" /></g><g
         id="g138"
         transform="scale(1.19052)"><path
           d="M 16300,5122.07 H 14233.8 V 7188.23 H 16300 V 5122.07"
           style="fill:#f0f0f0;fill-opacity:1;fill-rule:nonzero;stroke:none"
           id="path140"
           inkscape:connector-curvature="0" /></g><g
         id="g142"
         transform="scale(1.19051)"><path
           d="m 16300,4969.97 c 0,0 -1.4,-956.39 -225.6,-1767.14 l -477.9,-299.03 h -1684.7 c 320.1,851.74 322,2066.17 322,2066.17 H 16300"
           style="fill:#f0f0f0;fill-opacity:1;fill-rule:nonzero;stroke:none"
           id="path144"
           inkscape:connector-curvature="0" /></g><g
         id="g146"
         transform="scale(1.17403)"><path
           d="m 15815.4,2944.56 v 310.21 h 484.6 l -484.6,-310.21"
           style="fill:#c9c9c9;fill-opacity:1;fill-rule:nonzero;stroke:none"
           id="path148"
           inkscape:connector-curvature="0" /></g><path
         d="m 15399.2,8563.6 c 0,0 -1.7,-1138.6 -268.6,-2103.7 l -568.9,-356.1 H 12556 c 381.1,1014.1 383.4,2459.8 383.4,2459.8 h 2459.8"
         style="fill:#f0f0f0;fill-opacity:1;fill-rule:nonzero;stroke:none"
         id="path150"
         inkscape:connector-curvature="0" /><path
         d="m 14561.7,6103.8 v 364.3 h 568.9 z"
         style="fill:#c9c9c9;fill-opacity:1;fill-rule:nonzero;stroke:none"
         id="path152"
         inkscape:connector-curvature="0" /><g
         id="g166"
         transform="scale(1.53452)" /><g
         id="g170"
         transform="matrix(1,0,0,0.91500224,0,210.19946)"><g
           id="g172"
           clip-path="url(#clipPath176-5)"><path
             d="M 9459.9,2473 H 9305.19 V 15185.2 H 9459.9 V 2473"
             style="fill:url(#linearGradient182);fill-opacity:1;fill-rule:nonzero;stroke:none"
             id="path184"
             inkscape:connector-curvature="0" /></g></g><g
         id="g186"
         transform="matrix(1,0,0,0.86167031,0,1125.9877)"><g
           id="g188"
           clip-path="url(#clipPath192-1)"><path
             d="m 16249.8,2473 h -154.7 v 12712.2 h 154.7 V 2473"
             style="fill:url(#linearGradient198-7);fill-opacity:1;fill-rule:nonzero;stroke:none"
             id="path200"
             inkscape:connector-curvature="0" /></g></g><g
         id="g218"
         transform="scale(1.0949)" /><g
         id="g222"
         transform="scale(1.13308)" /><g
         id="g226"
         transform="scale(1.62415)"><path
           d="m 15825,1723.05 c 0,0 32.7,49.51 38.1,78.63 5.4,29.06 21.7,45.68 21.7,45.68 0,0 123.9,17.98 171.5,62.19 47.6,44.21 148.4,164.58 196.1,128.5 47.6,-36.08 -34.5,-187.86 -83.1,-233.73 -48.6,-45.87 -114.4,-126.22 -174.2,-120.3 -59.7,5.97 -141.1,34.35 -170.1,39.03"
           style="fill:#cfbfb8;fill-opacity:1;fill-rule:nonzero;stroke:none"
           id="path228"
           inkscape:connector-curvature="0" /></g><g
         id="g230"
         transform="scale(1.58279)"><path
           d="m 16238.7,1775.86 61.3,119.79 c 0,0 -293.5,53.76 -379.3,105.44 -21.6,12.96 -43,25.97 -62.9,38.29 -45.4,27.99 -82.9,52.19 -96.2,63.43 -42.3,36.08 -212.2,156.44 -258.2,200.6 -45.8,44.22 -100,17.25 -171.6,16.55 -71.5,-0.76 -330.7,-72.53 -408.2,-82.83 -77.6,-10.23 -357.5,-62.29 -357.5,-62.29 49.3,-134.7 1672.6,-398.98 1672.6,-398.98"
           style="fill:#25354d;fill-opacity:1;fill-rule:nonzero;stroke:none"
           id="path232"
           inkscape:connector-curvature="0" /></g><g
         id="g234"
         transform="scale(1.60594)"><path
           d="m 14339.9,2147.77 c 0,0 155.7,-22.42 195.7,-25.47 41,-3.11 272.8,-21.79 384.6,-32.5 111.8,-10.71 331.4,-4.3 375,-23.48 43.5,-19.17 295.3,-104.48 377.7,-131.07 82.4,-26.65 617.9,-124.67 617.9,-124.67 0,0 9.2,-72.54 -38.2,-128.27 0,0 -236,21.11 -360.6,2.8 -124.6,-18.3 -342.1,9.59 -474.2,69.5 -132,59.9 -341.3,5.23 -458.3,-35.87 -117,-41.1 -564.2,-74.1 -620,-61.58 -55.9,12.51 -167.2,66.25 -247.8,153.92 -80.6,87.68 248.2,336.69 248.2,336.69"
           style="fill:#2f4563;fill-opacity:1;fill-rule:nonzero;stroke:none"
           id="path236"
           inkscape:connector-curvature="0" /></g><g
         id="g238"
         transform="scale(1.64047)"><path
           d="m 15910.6,1646.91 c 0,0 19.5,55.47 17.7,84.67 -1.9,29.26 7,43.22 7,43.22 0,0 117.6,52.85 152.7,106.68 35.2,53.89 103.3,193.66 157.6,170.44 54.4,-23.29 11.9,-188.79 -23.8,-244.45 -35.7,-55.71 -57.8,-203.9 -116.6,-212.5 -58.9,-8.59 -165.8,54.44 -194.6,51.94"
           style="fill:#eddad3;fill-opacity:1;fill-rule:nonzero;stroke:none"
           id="path240"
           inkscape:connector-curvature="0" /></g><g
         id="g242"
         transform="scale(1.4573)"><path
           d="m 15416.9,2476.7 c 0,0 -216.8,-492.07 119.8,-611.33 268.4,-95.18 763.3,-7.55 763.3,-7.55 l -304.5,479.72 -578.6,139.16"
           style="fill:#2f4563;fill-opacity:1;fill-rule:nonzero;stroke:none"
           id="path244"
           inkscape:connector-curvature="0" /></g><g
         id="g246"
         transform="scale(1.42919)"><path
           d="m 16289.2,4418.66 c -84.1,-18.76 -34,-230.06 -90.4,-525.61 -56.4,-295.49 -234.5,-341.67 -234.5,-341.67 0,0 79.1,131.06 70.4,268.05 -6.7,107.06 -136.4,399.11 -8.2,589.99 99,147.5 273.5,13.57 273.5,13.57 l -10.8,-4.33"
           style="fill:#323657;fill-opacity:1;fill-rule:nonzero;stroke:none"
           id="path248"
           inkscape:connector-curvature="0" /></g><g
         id="g250"
         transform="scale(1.43599)"><path
           d="m 16086,3785.39 162.9,-167.69 c 1.5,30.78 12.8,68.25 24.4,99.52 5.7,15.25 11.5,29.1 16.2,39.76 6.1,14.07 10.5,22.84 10.5,22.84 l -145.3,153.69 -68.7,-148.12"
           style="fill:#eea886;fill-opacity:1;fill-rule:nonzero;stroke:none"
           id="path252"
           inkscape:connector-curvature="0" /></g><g
         id="g254"
         transform="scale(1.44891)"><path
           d="m 16134.8,3601.82 c 0,0 6.3,-79.92 49.7,-153.64 43.6,-73.71 115.5,-196.08 105.3,-275.65 -10.2,-79.58 -44,-108.43 -74.6,-137.14 -30.6,-28.64 -114.5,-235.35 -124.7,-314.93 -10.2,-79.57 -16.6,-244.87 2.7,-366.41 0,0 -566.2,-65.7 -623.1,33.2 0,0 70.2,318.1 103.4,397.81 33.2,79.72 102.5,556.63 132.3,637.73 29.7,81.09 99.9,159.5 142.8,215.74 38.3,50.18 108.2,143.7 108.2,143.7 l 178,-180.41"
           style="fill:#ffb555;fill-opacity:1;fill-rule:nonzero;stroke:none"
           id="path256"
           inkscape:connector-curvature="0" /></g><g
         id="g258"
         transform="scale(1.46166)"><path
           d="m 16064.2,4303.68 c 74.1,-4.93 233.2,-60.82 235.8,-258.95 0,0 -12,-51.93 -29.5,-91.82 -17.6,-39.88 5.4,-166.11 -4.9,-170.97 -10.4,-4.92 -51.3,-8 -51.3,-8 0,0 -58.3,-128.21 -104.9,-121.65 -46.7,6.51 -219.4,63.49 -283.7,238.84 -64.2,175.35 -60.6,432.53 238.5,412.55"
           style="fill:#eea886;fill-opacity:1;fill-rule:nonzero;stroke:none"
           id="path260"
           inkscape:connector-curvature="0" /></g><g
         id="g262"
         transform="scale(1.46633)"><path
           d="m 16248,4031.83 c 0,0 -128.5,-67.51 -248.7,-70.24 -120.2,-2.73 -218.7,-195.45 -218.7,-195.45 0,0 -145.5,326.52 21.1,492.18 166.2,165.17 498.3,-2.8 446.3,-226.49"
           style="fill:#323657;fill-opacity:1;fill-rule:nonzero;stroke:none"
           id="path264"
           inkscape:connector-curvature="0" /></g><g
         id="g266"
         transform="scale(1.43693)"><path
           d="m 16297.9,4043.82 c 2.1,23.45 -19.9,61.52 -61.9,34.03 -41.9,-27.48 -3.3,-144.61 29.3,-137.3 32.7,7.23 30.5,79.05 32.6,103.27"
           style="fill:#eea886;fill-opacity:1;fill-rule:nonzero;stroke:none"
           id="path268"
           inkscape:connector-curvature="0" /></g><g
         id="g270"
         transform="scale(1.43507)"><path
           d="m 16183.4,3852.71 c 2.3,-3.83 62.1,-101.81 100.4,-133.09 5.7,15.26 11.5,29.12 16.2,39.78 0,0 -85.4,50.94 -116.6,93.31"
           style="fill:#a77860;fill-opacity:1;fill-rule:nonzero;stroke:none"
           id="path272"
           inkscape:connector-curvature="0" /></g><g
         id="g274"
         transform="scale(1.53315)"><path
           d="m 16287.7,2071.69 -747.8,141.14 12.4,65.1 747.7,-141.15 -12.3,-65.09"
           style="fill:#c4c4c4;fill-opacity:1;fill-rule:nonzero;stroke:none"
           id="path276"
           inkscape:connector-curvature="0" /></g><g
         id="g278"
         transform="scale(1.57249)"><path
           d="m 16300,2631.68 -419.5,-611.89 -53.3,36.5 419.6,611.9 53.2,-36.51"
           style="fill:#c4c4c4;fill-opacity:1;fill-rule:nonzero;stroke:none"
           id="path280"
           inkscape:connector-curvature="0" /></g><g
         id="g282"
         transform="scale(1.5189)"><path
           d="m 16296.2,2186.39 c 3.8,16.79 0,44.77 -52.8,73.08 -52.8,28.25 -166.9,92.63 -207,94.15 -40.1,1.58 -119.1,-4.74 -135.4,-4.68 -16.2,0.07 25.4,-95.46 25.4,-95.46 l 369.8,-67.09"
           style="fill:#eea886;fill-opacity:1;fill-rule:nonzero;stroke:none"
           id="path284"
           inkscape:connector-curvature="0" /></g><g
         id="g286"
         transform="scale(1.50325)"><path
           d="m 16085.3,2366.01 c 0,0 -222.6,87.54 -258.7,104.97 -36.1,17.43 -204.6,74.1 -219.5,81.62 -15,7.45 -85.4,428.07 -91.6,533.98 -6.3,105.9 -12.5,330.15 -132,320.17 -119.7,-9.98 -148.3,-88.48 -133.4,-242.94 15,-154.47 103.4,-707.6 140.8,-726.29 37.4,-18.7 466.4,-114.62 692.6,-159.79 216.5,-43.17 1.8,88.28 1.8,88.28"
           style="fill:#eea886;fill-opacity:1;fill-rule:nonzero;stroke:none"
           id="path288"
           inkscape:connector-curvature="0" /></g><g
         id="g290"
         transform="scale(1.4336)"><path
           d="m 16282.1,3202.01 c 0,0 -180.7,-33.69 -284.9,-44.23 0,0 -129.6,369.35 46.9,428.36 209.2,69.9 255.9,-216.3 238,-384.13"
           style="fill:#eddad3;fill-opacity:1;fill-rule:nonzero;stroke:none"
           id="path292"
           inkscape:connector-curvature="0" /></g><g
         id="g294"
         transform="scale(1.16472)"><path
           d="m 16300,5932.17 c 0,0 -65.8,26.1 -70.4,67.57 -4,35.28 -33.3,79.07 -42.3,92.55 -12.1,18.03 -30,86.89 -51.1,72.21 -21.1,-14.68 24.5,-114.8 30.1,-137.55 5.7,-22.83 -84,25.76 -106.5,21.38 -22.4,-4.38 -83.7,-161.76 -18.7,-187.85 64.9,-26.02 148.7,-9.45 159.3,-16.4 10.7,-6.87 46.6,-20.87 46.6,-20.87 l 53,108.96"
           style="fill:#eea886;fill-opacity:1;fill-rule:nonzero;stroke:none"
           id="path296"
           inkscape:connector-curvature="0" /></g><g
         id="g298"
         transform="scale(1.30253)"><path
           d="m 16102.3,1546.22 c 0,0 40.9,-75.55 67.6,-105.49 26.7,-30.02 128.9,-83.61 129.5,-172.66 0.6,-96.66 -172.4,-69.79 -240,-66.26 -67.6,3.53 -72.8,55.12 -101.3,109.79 -28.5,54.66 -57.1,45.45 -62.5,89.52 -5.3,44.14 27.6,145.1 27.6,145.1 h 179.1"
           style="fill:#202338;fill-opacity:1;fill-rule:nonzero;stroke:none"
           id="path300"
           inkscape:connector-curvature="0" /></g><g
         id="g302"
         transform="scale(1.22198)"><path
           d="m 16066.4,1657.56 c 0,0 -88.8,-98.28 -179,-118.9 -90.2,-20.63 -153.3,-46.89 -154,-103.28 -0.7,-56.38 259.6,-93.62 362.8,-36.74 154,84.94 169.7,59.33 186.8,101.72 17,42.47 -20.6,155.89 -19.4,169.4 1.3,16.69 -197.2,-12.2 -197.2,-12.2"
           style="fill:#202338;fill-opacity:1;fill-rule:nonzero;stroke:none"
           id="path304"
           inkscape:connector-curvature="0" /></g><g
         id="g306"
         transform="scale(1.2197)"><path
           d="m 16106.3,1707.8 c 0,0 -11.7,-46.16 -10,-47.15 1.8,-0.98 203.7,-24.84 197.6,12.22 -5,30.01 -12,62.64 -12,62.64 l -175.6,-27.71"
           style="fill:#81807e;fill-opacity:1;fill-rule:nonzero;stroke:none"
           id="path308"
           inkscape:connector-curvature="0" /></g><g
         id="g310"
         transform="scale(1.28742)"><path
           d="m 16112.5,1593.88 c 0,0 -8,-41.71 -6.5,-42.72 1.6,-1.01 194,-35.03 192.8,-0.39 -0.8,27.5 -17.7,59.58 -17.7,59.58 l -168.6,-16.47"
           style="fill:#81807e;fill-opacity:1;fill-rule:nonzero;stroke:none"
           id="path312"
           inkscape:connector-curvature="0" /></g><g
         id="g314"
         transform="scale(1.2987)"><path
           d="m 15299,4197.89 c 0,0 -68.9,-663.66 -104.8,-890.81 -41.9,-265.65 -56.1,-485.1 -67.8,-622.62 -14.7,-172.94 -17.6,-1023.57 -27.9,-1074.16 -10.2,-50.58 228.5,-13.93 228.5,-13.93 0,0 117.3,1111.5 161.1,1295.6 40.8,171.48 192.2,909.84 229.4,863.02 37.3,-46.82 83.4,-861.63 111,-996.85 27.5,-135.28 111.3,-1194.11 111.3,-1194.11 0,0 190,-37.5 240.5,4.93 0,0 23,912.45 5.4,1166.08 -6.7,96.64 114.3,1158.62 -40.8,1586.21 -81.9,225.92 -845.9,-123.36 -845.9,-123.36"
           style="fill:#292c47;fill-opacity:1;fill-rule:nonzero;stroke:none"
           id="path316"
           inkscape:connector-curvature="0" /></g><g
         id="g318"
         transform="scale(1.32929)"><path
           d="m 16194.5,4811.5 c 39.1,-106.97 -320.1,-374.86 -275.4,-383.06 44.6,-8.2 42.7,-92.91 42.7,-92.91 0,0 338.2,294.52 331.3,381.26 -3.9,48.22 -268.7,748.59 -309.1,777.55 -27.6,19.79 -200.7,89.22 -290.6,123.3 -41.5,15.8 -73.2,26.86 -79.6,27.23 -20.6,1.28 -273.9,-22.94 -273.9,-22.94 0,0 -36.3,-12.49 -73.5,-29.49 -63.3,-29.11 -162.1,-74.55 -232.9,-108.33 -23,-10.91 -51.6,-25.65 -75.3,-38.21 2.8,-86.06 7.9,-178.37 15.2,-276.99 0,0 13.2,-215.61 14.4,-433.24 11.4,-49.27 9.4,-163.77 9.4,-163.77 3.1,-108.63 -8.9,-220.19 -12.1,-282.48 -5,-98.02 -18.4,-237.5 -18.4,-237.5 l 123.1,-50.25 539.6,5.04 169,45.21 c 0,0 -10.1,433.92 -7.5,560.07 2.3,121.5 27.9,437.16 32.8,455.44 0,0 181,262.77 370.8,-255.93"
           style="fill:#dbd8e3;fill-opacity:1;fill-rule:nonzero;stroke:none"
           id="path320"
           inkscape:connector-curvature="0" /></g><g
         id="g322"
         transform="scale(1.27859)"><path
           d="m 15577.1,4260.48 c 0,0 385.3,-32.77 722.9,0 v -110.75 c 0,0 -502.7,-47.94 -739.8,21.12 l 16.9,89.63"
           style="fill:#1d2033;fill-opacity:1;fill-rule:nonzero;stroke:none"
           id="path324"
           inkscape:connector-curvature="0" /></g><g
         id="g326"
         transform="scale(1.24766)"><path
           d="m 15930.5,5803.89 c 3.1,-93.21 7.5,-193.24 15.5,-300.32 0,0 7.4,-261.53 22.5,-509.59 5.1,-35.51 7.7,-71.82 4.8,-109 -3.8,-48.49 -9,-101.48 -15.3,-156.7 -0.1,-0.72 -0.2,-1.44 -0.2,-2.08 -1.6,-13.15 -3.2,-26.37 -4.7,-39.68 0,-0.24 -0.1,-0.32 -0.1,-0.56 -33.5,-276.35 -90.5,-593.43 -120.1,-689.36 -6.3,-19.96 15.4,-38.56 30.8,-52.82 l 108,-68.05 c 0,0 44.5,409.97 59.3,549.1 14.3,134.34 59.2,314.35 78.8,489.8 v 0.08 c 24.9,222.66 59.2,440.75 77.8,570.27 48.2,337.35 112.4,488.27 112.4,488.27 -30.7,-9.14 -369.5,-169.36 -369.5,-169.36"
           style="fill:#323657;fill-opacity:1;fill-rule:nonzero;stroke:none"
           id="path328"
           inkscape:connector-curvature="0" /></g><g
         id="g330"
         transform="scale(1.34477)"><path
           d="m 15973.2,4783.51 c 43.5,-95.26 -275.4,-386.32 -271.7,-396.21 21.7,-57.25 104.7,-162.11 104.7,-162.11 0,0 493.8,530.43 487.3,595.72 -4.7,47.59 -418.7,576.16 -458.7,604.79 -23.1,16.58 -194.1,77.19 -278,110.28 -15.4,6.1 -65.3,24.91 -79,30.12 -17.9,-19.79 -142.9,-154.38 -186.2,-665.92 -7.4,-86.26 15.7,-268.82 31.1,-417.84 16.5,-159.06 34.6,-283.1 48,-416.06 26.2,-261.98 44.6,-470.41 44.6,-470.41 l 260.7,116.07 c 42.2,21.12 115.2,76.15 99.3,120.62 -60.2,168.8 -150.7,488.71 -150.7,636.84 0,0 68.8,494.88 91.9,574.6 0,0 208.1,-153.93 256.7,-260.49"
           style="fill:#323657;fill-opacity:1;fill-rule:nonzero;stroke:none"
           id="path332"
           inkscape:connector-curvature="0" /></g><g
         id="g334"
         transform="scale(1.27503)"><path
           d="m 16253.9,5857.04 c 0,0 1.8,90.66 36.8,274.03 9.3,49.1 -285.1,-129.17 -285.1,-129.17 0,0 0.9,-17.18 1.5,-40.4 0.4,-12.23 0.5,-26.19 0.4,-40.15 0,-4.94 0,-9.8 -0.1,-14.67 -0.3,-12.94 -0.9,-25.41 -2.1,-35.92 -1.1,-10.9 -7.5,-30.12 -9.8,-35.37 -12.1,-28 159.2,-49.25 258.4,21.65"
           style="fill:#eea987;fill-opacity:1;fill-rule:nonzero;stroke:none"
           id="path336"
           inkscape:connector-curvature="0" /></g><g
         id="g338"
         transform="scale(1.25944)"><path
           d="m 16269,5833.38 -49.4,-66.38 c 0,0 29,-38.75 80.4,-10.16 l -31,76.54"
           style="fill:#d44040;fill-opacity:1;fill-rule:nonzero;stroke:none"
           id="path340"
           inkscape:connector-curvature="0" /></g><g
         id="g342"
         transform="scale(1.25741)"><path
           d="m 16259.1,5773.61 c 0,0 -187.7,-722.52 -149,-1284.86 l 63.1,-111.26 59.1,116.51 c 0,0 16.2,1006.03 67.7,1281.44 l -40.9,-1.83"
           style="fill:#d44040;fill-opacity:1;fill-rule:nonzero;stroke:none"
           id="path344"
           inkscape:connector-curvature="0" /></g><g
         id="g346"
         transform="scale(1.26746)"><path
           d="m 16113.6,5857.93 52.5,-61.46 c 0,0 84.4,16.34 109.1,60.44 24.8,44.02 -161.6,1.02 -161.6,1.02"
           style="fill:#eea987;fill-opacity:1;fill-rule:nonzero;stroke:none"
           id="path348"
           inkscape:connector-curvature="0" /></g><g
         id="g350"
         transform="scale(1.25705)"><path
           d="m 16234.8,5960.71 c 0,0 6.3,-47.26 65.2,-116.23 l -64.4,-86.47 -34.8,179.47 34,23.23"
           style="fill:#c4c1cc;fill-opacity:1;fill-rule:nonzero;stroke:none"
           id="path352"
           inkscape:connector-curvature="0" /></g><g
         id="g354"
         transform="scale(1.27557)"><path
           d="m 16251.9,5918.53 c 0,0 -103.8,-125.44 -188.6,-158.91 l 39.5,-97.45 197.2,211.99 -48.1,44.37"
           style="fill:#c4c1cc;fill-opacity:1;fill-rule:nonzero;stroke:none"
           id="path356"
           inkscape:connector-curvature="0" /></g><g
         id="g358"
         transform="scale(1.24251)"><path
           d="m 15119.5,5456.3 c 0,0 458.9,-498.59 567.2,-471.95 50.1,12.31 126,98.75 188.6,179.96 20.7,26.8 41,54.89 60.2,82.65 0.1,0.08 0.1,0.16 0.1,0.16 76.8,110.99 137.1,217.39 137.1,217.39 0,0 227.3,266.31 44.9,385.1 0,0 -76.8,7.73 -120.6,-24.54 -40.3,-29.78 -138.5,-217.22 -154.5,-251.99 -15.9,-34.69 -139.9,-279.76 -151.5,-287 -11.6,-7.33 -133.4,65.83 -198.5,109.61 -105.2,70.83 -237.4,194.29 -237.4,194.29 l -135.6,-133.68"
           style="fill:#323657;fill-opacity:1;fill-rule:nonzero;stroke:none"
           id="path360"
           inkscape:connector-curvature="0" /></g><g
         id="g362"
         transform="scale(1.25831)"><path
           d="m 16116.8,4184.25 h 183.2 v 138.92 h -183.2 v -138.92"
           style="fill:#3a4066;fill-opacity:1;fill-rule:nonzero;stroke:none"
           id="path364"
           inkscape:connector-curvature="0" /></g><g
         id="g366"
         transform="scale(1.26786)"><path
           d="m 16098.1,5954.84 c 0,-4.97 -0.1,-9.86 -0.2,-14.75 169.4,56.87 202.1,142.37 202.1,142.37 -52.8,-37.39 -202.3,-87.23 -202.3,-87.23 0.3,-12.31 0.5,-26.35 0.4,-40.39"
           style="fill:#a77860;fill-opacity:1;fill-rule:nonzero;stroke:none"
           id="path368"
           inkscape:connector-curvature="0" /></g><g
         id="g370"
         transform="scale(1.30947)"><path
           d="m 16184,4507.41 c 0,0 -15.5,-12.98 -32,-12.83 -28.3,0.23 -60.6,31.08 -90.3,3.05 -29.7,-28.02 32.7,-147.23 55.2,-161.21 22.6,-13.97 73.7,11.15 128.4,77.29 54.7,66.13 -61.3,93.7 -61.3,93.7"
           style="fill:#eea886;fill-opacity:1;fill-rule:nonzero;stroke:none"
           id="path372"
           inkscape:connector-curvature="0" /></g><g
         id="g374"
         transform="scale(1.3033)"><path
           d="m 16149.1,4526.89 c 0,0 -57.7,-19.79 -119.2,-49.8 -53.9,-26.31 -117.2,-66.52 -110.8,-80.18 9.8,-20.71 58,18.19 113.2,40.67 50.8,20.64 44.3,7.98 44.3,7.98 0,0 1.7,3.68 -49.4,-29.77 -54.8,-35.91 -112.2,-76.81 -107.2,-88.08 6.3,-14.05 8.3,-15.27 30.4,-5.45 -11.5,-8.37 -10.8,-12.74 -7.8,-17.96 15.8,-26.7 104.6,13.35 139.9,29.31 -27,-12.43 -45.5,-24.4 -25.3,-34.6 23.1,-11.59 146.1,50.87 192.4,68.98 50.4,19.72 -100.5,158.9 -100.5,158.9"
           style="fill:#eea886;fill-opacity:1;fill-rule:nonzero;stroke:none"
           id="path376"
           inkscape:connector-curvature="0" /></g><g
         id="g378"
         transform="scale(1.32465)"><path
           d="m 15940,4453.93 c 0,0 12.3,-72.17 106.3,-164.57 0,0 215.3,237.57 253.7,282.03 l -168.5,97.77 -191.5,-215.23"
           style="fill:#323657;fill-opacity:1;fill-rule:nonzero;stroke:none"
           id="path380"
           inkscape:connector-curvature="0" /></g><g
         id="g382"
         transform="scale(1.28273)"><path
           d="m 15839,6432.37 c 0,0 -90.2,-100.95 -63.6,-126.37 22.1,-21.05 -60.7,-121.53 -72.4,-138.37 -11.7,-16.84 38.7,-43.11 47.2,-57.85 8.5,-14.66 7.2,-169.95 50.3,-184.92 43.1,-14.96 258.8,6.71 326.5,50.13 67.7,43.42 173,287.43 162.5,403.44 -10.6,116.08 -291.8,230.13 -450.5,53.94"
           style="fill:#eea886;fill-opacity:1;fill-rule:nonzero;stroke:none"
           id="path384"
           inkscape:connector-curvature="0" /></g><g
         id="g386"
         transform="scale(1.29196)"><path
           d="m 15707.5,6364.46 c 0,0 -33.7,139.47 103.4,204.18 137.2,64.71 310.8,-147.84 333.2,-159.68 22.4,-11.92 155.9,-53.64 30.5,-275.63 -107.7,-190.56 -118,-197.22 -118,-197.22 0,0 -15.7,129.11 -36.2,153.1 -32.1,37.47 -118.9,51.09 -118.9,51.09 0,0 66.3,98.07 6.5,128.48 -59.8,30.42 -130.6,104.19 -200.5,95.68"
           style="fill:#323657;fill-opacity:1;fill-rule:nonzero;stroke:none"
           id="path388"
           inkscape:connector-curvature="0" /></g><g
         id="g390"
         transform="scale(1.27748)"><path
           d="m 16164.9,6255.96 c 9.2,13.55 42.8,73.51 89,22.55 46.1,-50.88 -72.3,-150.69 -82.4,-149.9 -9.9,0.7 -84.3,12.83 -6.6,127.35"
           style="fill:#eea886;fill-opacity:1;fill-rule:nonzero;stroke:none"
           id="path392"
           inkscape:connector-curvature="0" /></g><g
         id="g394"
         transform="scale(1.13216)"><path
           d="m 16300,5534.91 c 0,0 -30.4,-119.6 -34.5,-137.61 -4.2,-18.02 -191.7,31.62 -191.7,31.62 l 0.2,146.27 c 0,0 204.1,-20.59 226,-40.28"
           style="fill:#666fb3;fill-opacity:1;fill-rule:nonzero;stroke:none"
           id="path396"
           inkscape:connector-curvature="0" /></g><g
         id="g398"
         transform="scale(1.16191)"><path
           d="m 15852.6,5274 c 0,0 51.2,-77.72 104.8,-114.99 53.5,-37.17 260.3,-85.37 290.4,-121.18 21.9,-25.9 52.2,-123.76 -279.6,-79.09 -235.7,31.76 -352,23.75 -373.2,64.81 -21.2,41.14 67.3,279.11 67.3,279.11 0,0 50.4,-27.46 190.3,-28.66"
           style="fill:#2d314f;fill-opacity:1;fill-rule:nonzero;stroke:none"
           id="path400"
           inkscape:connector-curvature="0" /></g><g
         id="g402"
         transform="scale(1.18213)"><path
           d="m 15540.9,868.94 759.1,7803.39 -82.1,7.96 -759.1,-7803.396 82.1,-7.954"
           style="fill:#b8b8b8;fill-opacity:1;fill-rule:nonzero;stroke:none"
           id="path404"
           inkscape:connector-curvature="0" /></g><g
         id="g406"
         transform="scale(1.08589)"><path
           d="m 15473.7,1086.11 826.3,8495.01 -89.2,8.67 -826.5,-8495.02 89.4,-8.66"
           style="fill:#b8b8b8;fill-opacity:1;fill-rule:nonzero;stroke:none"
           id="path408"
           inkscape:connector-curvature="0" /></g><g
         id="g410"
         transform="scale(1.17835)"><path
           d="m 16292,8509.8 8,82.3 -1331.2,129.19 -8,-82.3 1331.2,-129.19"
           style="fill:#b8b8b8;fill-opacity:1;fill-rule:nonzero;stroke:none"
           id="path412"
           inkscape:connector-curvature="0" /></g><g
         id="g414"
         transform="scale(1.17401)"><path
           d="m 16291.9,7919.93 8.1,82.63 -1336.2,129.64 -8,-82.63 1336.1,-129.64"
           style="fill:#b8b8b8;fill-opacity:1;fill-rule:nonzero;stroke:none"
           id="path416"
           inkscape:connector-curvature="0" /></g><g
         id="g418"
         transform="scale(1.16967)"><path
           d="m 16292,7325.75 8,82.93 -1341.1,130.12 -8.1,-82.93 1341.2,-130.12"
           style="fill:#b8b8b8;fill-opacity:1;fill-rule:nonzero;stroke:none"
           id="path420"
           inkscape:connector-curvature="0" /></g><g
         id="g422"
         transform="scale(1.16533)"><path
           d="m 16291.9,6727.14 8.1,83.23 -1346.1,130.61 -8.1,-83.24 1346.1,-130.6"
           style="fill:#b8b8b8;fill-opacity:1;fill-rule:nonzero;stroke:none"
           id="path424"
           inkscape:connector-curvature="0" /></g><g
         id="g426"
         transform="scale(1.16098)"><path
           d="m 16291.9,6124.04 8.1,83.55 -1351.1,131.1 -8.1,-83.55 1351.1,-131.1"
           style="fill:#b8b8b8;fill-opacity:1;fill-rule:nonzero;stroke:none"
           id="path428"
           inkscape:connector-curvature="0" /></g><g
         id="g430"
         transform="scale(1.15664)"><path
           d="m 16291.9,5516.42 8.1,83.78 -1356.2,131.67 -8.1,-83.86 1356.2,-131.59"
           style="fill:#b8b8b8;fill-opacity:1;fill-rule:nonzero;stroke:none"
           id="path432"
           inkscape:connector-curvature="0" /></g><g
         id="g434"
         transform="scale(1.15229)"><path
           d="m 16291.8,4904.22 8.2,84.09 -1361.3,132.17 -8.1,-84.18 1361.2,-132.08"
           style="fill:#b8b8b8;fill-opacity:1;fill-rule:nonzero;stroke:none"
           id="path436"
           inkscape:connector-curvature="0" /></g><g
         id="g438"
         transform="scale(1.14795)"><path
           d="m 16291.8,4287.29 8.2,84.5 -1366.4,132.58 -8.2,-84.41 1366.4,-132.67"
           style="fill:#b8b8b8;fill-opacity:1;fill-rule:nonzero;stroke:none"
           id="path440"
           inkscape:connector-curvature="0" /></g><g
         id="g442"
         transform="scale(1.14361)"><path
           d="m 16291.8,3665.77 8.2,84.82 -1371.6,133.09 -8.2,-84.74 1371.6,-133.17"
           style="fill:#b8b8b8;fill-opacity:1;fill-rule:nonzero;stroke:none"
           id="path444"
           inkscape:connector-curvature="0" /></g><g
         id="g446"
         transform="scale(1.13927)"><path
           d="m 16291.7,3039.49 8.3,85.14 -1376.9,133.6 -8.3,-85.15 1376.9,-133.59"
           style="fill:#b8b8b8;fill-opacity:1;fill-rule:nonzero;stroke:none"
           id="path448"
           inkscape:connector-curvature="0" /></g><g
         id="g450"
         transform="scale(1.13493)"><path
           d="m 16291.7,2408.44 8.3,85.47 -1382.2,134.1 -8.3,-85.46 1382.2,-134.11"
           style="fill:#b8b8b8;fill-opacity:1;fill-rule:nonzero;stroke:none"
           id="path452"
           inkscape:connector-curvature="0" /></g><g
         id="g454"
         transform="scale(1.13058)"><path
           d="m 16291.7,1772.54 8.3,85.79 -1387.4,134.62 -8.4,-85.79 1387.5,-134.62"
           style="fill:#b8b8b8;fill-opacity:1;fill-rule:nonzero;stroke:none"
           id="path456"
           inkscape:connector-curvature="0" /></g><g
         id="g458"
         transform="scale(1.12624)"><path
           d="m 16291.7,1131.73 8.3,86.13 -1392.8,135.14 -8.3,-86.13 1392.8,-135.14"
           style="fill:#b8b8b8;fill-opacity:1;fill-rule:nonzero;stroke:none"
           id="path460"
           inkscape:connector-curvature="0" /></g><g
         id="g462"
         transform="scale(1.2602)"><path
           d="m 16291,9157.59 c 0,0 -15.9,-19.7 -27.1,-24.92 0,0 -21,-7.94 -35.6,-14.49 -4.6,-2.09 -8.6,-4.02 -11.1,-5.54 -10.2,-6.32 -30.8,-23.25 -59.6,-31.53 -28.8,-8.29 -158.9,-37.92 -158.9,-37.92 l -30.2,77.23 -21.7,62.37 c 0,0 120.5,156.09 146.3,166.91 2.6,1.04 5.2,1.98 7.6,2.68 22.8,7.03 42.8,2.66 55.2,4.99 4.6,0.83 50.5,6 60.4,-3.58 13.8,-13.29 18,-28.09 15.6,-41 0,0 25.9,-27.21 27.7,-52.42 0,0 24.7,-24.33 18.1,-56.35 0,0 22.3,-27.48 13.3,-46.43"
           style="fill:#eea886;fill-opacity:1;fill-rule:nonzero;stroke:none"
           id="path464"
           inkscape:connector-curvature="0" /></g><g
         id="g466"
         transform="scale(1.24434)"><path
           d="m 15085.9,8248.84 c 30.4,19.6 69.8,46.15 206.2,114.34 253.8,127.01 567.2,357.24 626.8,390.49 91.6,51.13 381.1,404.78 381.1,404.78 -14.9,53.27 -152.2,160.17 -152.2,160.17 0,0 -438.8,-415.64 -534.7,-466.8 -82.5,-43.98 -489.8,-88.43 -602.1,-99.97 -18.1,-1.87 -28.6,-2.9 -28.6,-2.9 -117.1,-159.81 38,-542.25 103.5,-500.11"
           style="fill:#4ba2f4;fill-opacity:1;fill-rule:nonzero;stroke:none"
           id="path468"
           inkscape:connector-curvature="0" /></g><g
         id="g470"
         transform="scale(1.16801)"><path
           d="m 16024,7806.25 c 0,0 132.2,-491.26 167.1,-666.85 30.4,-153 91.5,-560.53 100.3,-657.36 8.6,-96.92 -390.5,-1034.66 -432.1,-1204.01 l -363.7,58.39 c 0,0 383.7,975.93 283.6,1192.88 -148.9,322.51 -168.2,312.84 -285.5,578.5 -117.3,265.75 -385.7,272 -457.9,765.06 0,0 890.6,89.73 988.2,-66.61"
           style="fill:#2d314f;fill-opacity:1;fill-rule:nonzero;stroke:none"
           id="path472"
           inkscape:connector-curvature="0" /></g><g
         id="g474"
         transform="scale(1.13515)"><path
           d="m 15822.4,10488 c 0,0 248.5,92.8 363,-96.3 114.6,-189.2 103.6,-567.88 -21.7,-614.45 -125.2,-46.56 -313.4,-22.22 -377.6,96.14 -64.1,118.36 -122,289.51 -119.1,403.81 2.7,114.4 90.1,177.8 155.4,210.8"
           style="fill:#eea886;fill-opacity:1;fill-rule:nonzero;stroke:none"
           id="path476"
           inkscape:connector-curvature="0" /></g><g
         id="g478"
         transform="scale(1.12437)"><path
           d="m 16276.6,9882.77 c 0,0 -10.1,-65.76 6.7,-98.15 16.7,-32.4 -315.6,-33.24 -315.6,-33.24 0,0 -27,176.2 -78.2,325.12 -51.1,148.8 387.1,-193.73 387.1,-193.73"
           style="fill:#eea886;fill-opacity:1;fill-rule:nonzero;stroke:none"
           id="path480"
           inkscape:connector-curvature="0" /></g><g
         id="g482"
         transform="scale(1.13367)"><path
           d="m 15759.1,9993.73 c 0,0 22.8,-37.52 115.6,-22.97 92.9,14.56 206.2,138.14 244.9,151.64 38.8,13.6 39.2,36.4 39.2,36.4 l 24.2,-35.5 41.2,-2.6 c 0,0 -37.5,110.5 19.1,155.6 56.7,45 -58.8,357.6 -356.6,253.6 0,0 -228.7,-63.1 -220.4,-193.2 8.4,-130 41.6,-278.2 92.8,-342.97"
           style="fill:#d88a51;fill-opacity:1;fill-rule:nonzero;stroke:none"
           id="path484"
           inkscape:connector-curvature="0" /></g><g
         id="g486"
         transform="scale(1.12434)"><path
           d="m 16286.7,10290.8 c -5.3,22 -61.2,84.8 -82.7,17.5 -21.4,-67.3 32.4,-157.8 62.4,-150.1 30,7.8 33.6,76.8 20.3,132.6"
           style="fill:#eea886;fill-opacity:1;fill-rule:nonzero;stroke:none"
           id="path488"
           inkscape:connector-curvature="0" /></g><g
         id="g490"
         transform="scale(1.09829)"><path
           d="m 15693.4,9135.44 c 2.8,-33.69 41.3,-70.11 67.5,-88.14 16.8,-11.56 37,-18.57 58.5,-19.3 l 15.3,-0.45 v 0 l 266.9,-9.11 c 0,0 198.4,641.26 -173.7,885.81 -11.6,-1.15 -260.3,-459.73 -234.5,-768.81"
           style="fill:#4ba2f4;fill-opacity:1;fill-rule:nonzero;stroke:none"
           id="path492"
           inkscape:connector-curvature="0" /></g><g
         id="g494"
         transform="scale(1.15029)"><path
           d="m 15752.6,5074.29 c 21.4,-41.47 138.8,-33.38 376.9,-65.46 65.1,-8.69 116.3,-12.08 156.6,-11.56 l 13.9,143.27 c -69.6,24.16 -150.7,49.2 -181.4,70.59 -54.2,37.64 -105.8,116.15 -105.8,116.15 -141.4,1.21 -192.3,28.94 -192.3,28.94 0,0 -89.4,-240.37 -67.9,-281.93"
           style="fill:#2d314f;fill-opacity:1;fill-rule:nonzero;stroke:none"
           id="path496"
           inkscape:connector-curvature="0" /></g><g
         id="g498"
         transform="scale(1.12959)"><path
           d="m 16201.6,9758.42 c 0,0 -203.6,47.36 -318.4,8.61 l -17.3,-16.04 c 0,0 -34.9,-66.87 96.4,-72.62 131.3,-5.75 337.7,-15.31 239.3,80.05"
           style="fill:#4ba2f4;fill-opacity:1;fill-rule:nonzero;stroke:none"
           id="path500"
           inkscape:connector-curvature="0" /></g><g
         id="g502"
         transform="scale(1.06763)"><path
           d="m 16300,5276.29 c 0,0 -32.3,-126.83 -36.7,-145.93 -4.4,-19.11 -203.3,33.43 -203.3,33.43 l 0.2,155.21 c 0,0 216.5,-21.82 239.8,-42.71"
           style="fill:#666fb3;fill-opacity:1;fill-rule:nonzero;stroke:none"
           id="path504"
           inkscape:connector-curvature="0" /></g><g
         id="g506"
         transform="scale(1.1149)"><path
           d="m 15752.1,8247.9 c 0,0 -69.5,-286.48 -90,-573.23 -19,-265.05 -53.6,-555.66 -81.1,-832.9 -30.7,-309 -118.1,-808.5 -122.6,-973.81 -4.6,-165.3 -143.7,-887.7 -143.7,-887.7 l 355.8,-40.81 c 0,0 231.3,1276.52 285.9,1407.03 54.6,130.5 325.4,1060.81 334.5,1165.21 9.1,104.4 -538.8,736.21 -538.8,736.21"
           style="fill:#2d314f;fill-opacity:1;fill-rule:nonzero;stroke:none"
           id="path508"
           inkscape:connector-curvature="0" /></g><g
         id="g510"
         transform="scale(1.09737)"><path
           d="m 15826.3,5006.98 c 0,0 54.2,-82.2 110.9,-121.66 56.8,-39.45 275.7,-90.39 307.7,-128.3 23,-27.43 55.1,-131.04 -296.2,-83.75 -249.6,33.63 -372.7,25.15 -395.1,68.62 -22.4,43.47 71.1,295.44 71.1,295.44 0,0 53.4,-28.98 201.6,-30.35"
           style="fill:#2d314f;fill-opacity:1;fill-rule:nonzero;stroke:none"
           id="path512"
           inkscape:connector-curvature="0" /></g><g
         id="g514"
         transform="scale(1.16739)"><path
           d="m 16101.3,7196.47 c 28.9,4.11 -72,867.06 -64.3,921.19 5.2,36.07 4.4,316.52 2.3,491.34 l 31.6,176.91 c 17.5,12.78 41.1,27.55 69.3,43.78 43.7,25.3 98.7,54.2 159.8,84.72 -7.1,41.79 -12.1,74.7 -14,93.93 -15.2,155.41 -119.6,237.76 -178.7,272.43 -24.2,14.13 -40.8,20.33 -40.8,20.33 -22.5,9.54 -44.6,18.78 -66.1,27.6 -142.4,58.65 -323.4,113.71 -323.4,113.71 h -290.9 c 0,0 -221.4,-44.24 -353.4,-98.25 -16.8,-6.93 -32.7,-15.76 -47.6,-26.15 l 39.5,-829.18 c 0,-0.17 0.1,-0.34 0.1,-0.51 0,-0.26 0.1,-0.6 0.2,-1.12 17.7,-116.58 36.4,-254.24 42.7,-350.69 2.6,-39.41 -42.5,-250.9 -66,-445.09 l -82.3,-464.63 c 0,0 47.6,-192.48 1182,-30.32"
           style="fill:#4ba2f4;fill-opacity:1;fill-rule:nonzero;stroke:none"
           id="path516"
           inkscape:connector-curvature="0" /></g><g
         id="g518"
         transform="scale(1.4586)" /><g
         id="g522"
         transform="scale(1.52123)" /><g
         id="g526"
         transform="scale(1.58386)" /><g
         id="g530"
         transform="scale(1.64648)" /><g
         id="g538"
         transform="scale(1.46812)" /><g
         id="g542"
         transform="scale(1.47316)" /><g
         id="g546"
         transform="scale(1.47944)" /><g
         id="g550"
         transform="scale(1.53772)" /><g
         id="g554"
         transform="scale(1.53137)" /><g
         id="g558"
         transform="scale(1.59477)" /><g
         id="g562"
         transform="scale(1.59658)" /><g
         id="g566"
         transform="scale(1.66238)" /><g
         id="g570"
         transform="scale(1.65921)" /><g
         id="g582"
         transform="scale(1.53075)" /><g
         id="g586"
         transform="scale(1.59382)" /><g
         id="g590"
         transform="scale(1.65645)" /><path
         d="m 1461.63,2117.2 c 0,0 -2.68,47.5 93.34,102.6 l -124.33,131.8 c 0,0 -74.67,-39.5 -148.57,-107.6 -73.9,-68 179.56,-126.8 179.56,-126.8"
         style="fill:#eea987;fill-opacity:1;fill-rule:nonzero;stroke:none"
         id="path606"
         inkscape:connector-curvature="0" /><path
         d="m 4446.06,2059.2 c 0,0 -9.46,116.8 26.89,173.6 l -155.54,31.8 c 0,0 -89.16,-127 -84.47,-203.1 4.69,-76.1 213.12,-2.3 213.12,-2.3"
         style="fill:#eea987;fill-opacity:1;fill-rule:nonzero;stroke:none"
         id="path608"
         inkscape:connector-curvature="0" /><path
         d="m 1741.77,1654.5 c -1.62,-44 0.79,-68.3 -133.73,-65.5 -134.52,2.8 -258.66,167.3 -345.31,283 -86.71,115.8 -202.61,173.4 -126.07,247.3 9.41,9 19.33,18.2 29.54,27.4 72.47,65.4 157.99,129.1 169.45,142.2 12.99,15 128.28,-152.1 128.28,-152.1 0,0 -12.89,-81.5 7.14,-130 19.98,-48.4 48.5,-222.9 111.23,-253.8 0.05,0 0.1,0 0.1,0 62.75,-30.8 159.69,-88.8 159.37,-98.5"
         style="fill:#eea987;fill-opacity:1;fill-rule:nonzero;stroke:none"
         id="path610"
         inkscape:connector-curvature="0" /><path
         d="m 4837.1,1677.1 c -89.39,4.7 -342.5,26.2 -483.82,16.1 -141.32,-10.2 -195.27,13.2 -181.99,113.9 0.69,5.5 1.53,11 2.48,16.7 15.97,98.4 59.62,221.3 63.72,262.5 4.32,43.6 181.79,13.4 181.79,13.4 0,0 88.82,-141.2 139.26,-171.1 50.4,-29.9 204,-92.5 262.76,-121 4.3,-2.1 8.97,-4 13.9,-5.9 h 0.04 c 62.31,-23.4 168.78,-30 183.04,-64.3 15.35,-37 -91.75,-64.9 -181.18,-60.3"
         style="fill:#eea987;fill-opacity:1;fill-rule:nonzero;stroke:none"
         id="path612"
         inkscape:connector-curvature="0" /><path
         d="m 4837.1,1677.1 c -89.39,4.7 -342.5,26.2 -483.82,16.1 -141.32,-10.2 -195.27,13.2 -181.99,113.9 0.69,5.5 1.53,11 2.48,16.7 34.71,22.4 278.49,0 422.26,-23.6 143.76,-23.5 239.17,1.5 239.17,1.5 h 0.04 c 62.31,-23.4 168.78,-30 183.04,-64.3 15.35,-37 -91.75,-64.9 -181.18,-60.3"
         style="fill:#004e8c;fill-opacity:1;fill-rule:nonzero;stroke:none"
         id="path614"
         inkscape:connector-curvature="0" /><path
         d="m 1746.03,1655.9 c -1.62,-43.9 -3.47,-69.7 -137.99,-66.9 -134.52,2.8 -258.66,167.3 -345.31,283 -86.71,115.8 -202.61,173.4 -126.07,247.3 9.41,9 19.33,18.2 29.54,27.4 4.03,-3.5 173.08,-155.3 225.15,-259 86.54,-172.3 186.64,-133.8 190.95,-134.7 0.05,0 0.1,0 0.1,0 62.75,-30.8 163.96,-87.4 163.63,-97.1"
         style="fill:#004e8c;fill-opacity:1;fill-rule:nonzero;stroke:none"
         id="path616"
         inkscape:connector-curvature="0" /><path
         d="M 5069.99,3400.3 C 4922.68,3176.8 4472.97,2101.5 4472.97,2101.5 l -353.95,36.6 c 0,0 250.84,754 373.77,1032.2 90.96,205.8 215.97,307.1 97.73,365.1 -99.89,49.1 -701.99,290.4 -956.86,428.1 -32.58,17.6 -59.48,33.5 -78.9,47 -8.54,6 -15.6,11.5 -21.12,16.5 -116.95,106.1 146.79,855.3 556.35,615.9 0,0 891.3,-712 958.62,-832.7 67.34,-120.8 168.74,-186.3 21.38,-409.9"
         style="fill:#cccccc;fill-opacity:1;fill-rule:nonzero;stroke:none"
         id="path618"
         inkscape:connector-curvature="0" /><path
         d="m 4071.19,4666 c 0,0 -605.64,-849.1 -1154.97,-1307.7 -155.49,-129.8 -282.06,-237.5 -504.03,-403.7 -117.99,-88.4 -326.81,-274 -496.54,-428.4 l -7.05,-6.5 c -121.04,-110.2 -221.01,-203.5 -251.82,-232.4 -1.1,-0.9 -2.06,-1.8 -2.91,-2.7 l -3.43,-3.2 -110.77,-112.1 -158.43,154.5 c 0,0 189.21,228.6 297.36,405.3 151.78,247.9 373.24,522.9 487.79,602.2 196.25,135.9 387.29,216.8 459.55,345.5 72.31,128.6 320.96,646.9 320.96,646.9 0,0 57.5,539.6 388.6,658.7 312.01,112.2 735.69,-316.4 735.69,-316.4"
         style="fill:#cccccc;fill-opacity:1;fill-rule:nonzero;stroke:none"
         id="path620"
         inkscape:connector-curvature="0" /><path
         d="m 4419.51,6924.4 c -15.6,-22.5 -27.95,-51.8 -37.64,-83.2 -9.2,-29.5 -16.06,-60.9 -21.14,-90 -11.02,-63.2 -13.7,-115.7 -13.7,-115.7 0,0 -348.78,102.7 -284.68,181.1 64.08,78.5 47.93,331.4 47.93,331.4 0,0 360.68,-149.6 309.23,-223.6"
         style="fill:#eea987;fill-opacity:1;fill-rule:nonzero;stroke:none"
         id="path622"
         inkscape:connector-curvature="0" /><path
         d="m 4668.05,7592.6 c 0,0 85.01,-85.4 28.12,-309.4 0,0 7.03,-182.2 32.43,-215.7 25.4,-33.5 -77.4,-37.8 -89.76,-59.7 -12.38,-22 -40.31,-126.8 -116.01,-185.7 -75.7,-58.9 -413.74,159.5 -423.03,269.8 -9.27,110.3 -219.46,595.4 168.08,588.9 387.53,-6.4 400.17,-88.2 400.17,-88.2"
         style="fill:#eea886;fill-opacity:1;fill-rule:nonzero;stroke:none"
         id="path624"
         inkscape:connector-curvature="0" /><path
         d="m 4559.87,5610.4 c -14.45,-25 -30.46,-51.1 -47.99,-78.4 -47.34,-74.1 -105.64,-157.2 -175.06,-253.9 -15.32,-21.3 -34.15,-45 -50.53,-74 -89.71,-158.6 -162.99,-428.7 -187.67,-526.2 -5.84,-23.1 -8.63,-35 -8.63,-35 -468.29,-10.1 -960.05,294.5 -960.05,294.5 308,325.6 428.53,577 428.53,577 32.31,88.4 51.82,187.6 57.94,318.6 17.65,378.7 122.81,587.6 224.92,752.9 102.05,165.3 221.02,230.7 221.02,230.7 l 286.32,-173.7 c 33.38,-107.5 150.22,-227.4 265,-490.2 84.67,-194 67.95,-331.8 -53.8,-542.3"
         style="fill:#ffbf55;fill-opacity:1;fill-rule:nonzero;stroke:none"
         id="path626"
         inkscape:connector-curvature="0" /><path
         d="m 4711.7,7364.1 c 0,0 77.35,468.1 -385.6,416.9 -462.95,-51.2 -264.55,-583.2 -215.08,-755.5 0,0 11.31,261.2 231.9,253.9 220.59,-7.4 269.72,40.3 368.78,84.7"
         style="fill:#464240;fill-opacity:1;fill-rule:nonzero;stroke:none"
         id="path628"
         inkscape:connector-curvature="0" /><path
         d="m 4311.94,7348.1 c -24.05,49.9 -120.22,31.1 -114.69,-42.5 5.52,-73.7 75.88,-151.9 103.47,-118.4 27.6,33.4 46.55,87.7 11.22,160.9"
         style="fill:#eea987;fill-opacity:1;fill-rule:nonzero;stroke:none"
         id="path630"
         inkscape:connector-curvature="0" /><path
         d="m 4149.16,7640.8 c 0,0 -123.87,137.2 -228.89,-0.5 -105.03,-137.8 87.44,-354.5 179.97,-240.8 92.54,113.7 48.92,241.3 48.92,241.3"
         style="fill:#464240;fill-opacity:1;fill-rule:nonzero;stroke:none"
         id="path632"
         inkscape:connector-curvature="0" /><path
         d="m 4381.87,6841.2 c -9.2,-29.5 -16.06,-60.9 -21.14,-90 -113.85,62.1 -190.07,232.4 -190.07,232.4 79.96,-79.7 211.18,-142.3 211.18,-142.3 0,0 0,0 0.03,-0.1"
         style="fill:#a77860;fill-opacity:1;fill-rule:nonzero;stroke:none"
         id="path634"
         inkscape:connector-curvature="0" /><path
         d="m 4084.22,7687.9 c 0,0 -56.47,92.2 -186.81,93.5 -130.33,1.2 -290.38,-196 -249.83,-482.9 40.54,-286.9 -52.08,-622 -324.37,-897.9 0,0 475.21,256.1 519.12,633.9 43.93,377.7 177.46,378.6 177.46,378.6 l 64.43,274.8"
         style="fill:#464240;fill-opacity:1;fill-rule:nonzero;stroke:none"
         id="path636"
         inkscape:connector-curvature="0" /><path
         d="m 5216.05,4910 c 0,0 124.83,-2.3 154.2,-6.9 29.38,-4.5 92.19,-21.6 100.7,-15.8 8.51,5.9 35.91,123 57.29,148.3 21.4,25.4 97.31,284.7 83.59,282.8 -13.71,-1.9 -60.87,-68.8 -158.05,-182.6 -97.18,-113.7 -207.95,-71.8 -247.1,-98.6 -39.16,-26.8 9.37,-127.2 9.37,-127.2"
         style="fill:#eea886;fill-opacity:1;fill-rule:nonzero;stroke:none"
         id="path638"
         inkscape:connector-curvature="0" /><path
         d="m 3554.76,4010.5 c 0,0 259.08,304.1 278.85,340.4 -10.54,-23.2 -146.39,-322.5 -199.95,-387.4 -32.58,17.6 -59.48,33.5 -78.9,47"
         style="fill:#919191;fill-opacity:1;fill-rule:nonzero;stroke:none"
         id="path640"
         inkscape:connector-curvature="0" /><path
         d="m 4559.87,5610.4 c -14.45,-25 -30.46,-51.1 -47.99,-78.4 0,0 -147.22,448.1 -161.54,558.5 0,0 139.17,-313.6 209.53,-480.1"
         style="fill:#bd8d3f;fill-opacity:1;fill-rule:nonzero;stroke:none"
         id="path642"
         inkscape:connector-curvature="0" /><path
         d="m 5269.41,5050.2 c 0,0 -464.2,105.9 -691.33,321.3 -59.45,56.3 -293.27,967.2 -293.27,967.2 0,0 -64.24,230.2 -267.69,163.8 -203.45,-66.5 -122.06,-298.3 -122.06,-298.3 0,0 281.26,-720.7 430.13,-1001.1 123.87,-233.2 947.71,-310.7 947.71,-310.7 l -3.49,157.8"
         style="fill:#ffbf55;fill-opacity:1;fill-rule:nonzero;stroke:none"
         id="path644"
         inkscape:connector-curvature="0" /><path
         d="m 4024.1,6790.8 65.54,82.4 281.12,-170.9 1.72,-142.6 -348.38,231.1"
         style="fill:#e0e0e0;fill-opacity:1;fill-rule:nonzero;stroke:none"
         id="path646"
         inkscape:connector-curvature="0" /><path
         d="m 5814.51,5536.3 c -189.52,-272.9 -316.99,-570.5 -385.46,-876 l -0.27,-0.4 c -45.95,-205.9 -65.43,-415.3 -58.6,-623.5 23.36,-762.6 395.86,-1504.4 1070.54,-1973 1132.32,-786.3 2687.26,-506 3473.33,626 786.35,1132.3 505.95,2687.2 -626.34,3473.5 -385.82,268 -820.87,412.2 -1257.72,440.6 -721.22,47.2 -1448.16,-220.3 -1967.58,-763.8 -89.34,-92.9 -172.25,-194.4 -247.9,-303.4"
         style="fill:#33a4ff;fill-opacity:1;fill-rule:nonzero;stroke:none"
         id="path648"
         inkscape:connector-curvature="0" /><path
         d="m 5692.72,6193.9 2170.11,-2079.8 199.84,2999.8 c -868.71,57 -1744.31,-265.3 -2369.95,-920"
         style="fill:#007fe6;fill-opacity:1;fill-rule:nonzero;stroke:none"
         id="path650"
         inkscape:connector-curvature="0" /><path
         d="M 5745.85,5584.3 C 5550.09,5302.4 5418.43,4995 5347.71,4679.4 L 7862.83,4114.1 6001.89,5897.6 c -92.28,-95.9 -177.92,-200.8 -256.04,-313.3"
         style="fill:#0064b5;fill-opacity:1;fill-rule:nonzero;stroke:none"
         id="path652"
         inkscape:connector-curvature="0" /><path
         d="m 5193.63,4714 -0.3,-0.4 c -50.37,-225.6 -71.73,-455.2 -64.24,-683.4 l 2733.74,83.9 -2669.2,599.9"
         style="fill:#004e8c;fill-opacity:1;fill-rule:nonzero;stroke:none"
         id="path654"
         inkscape:connector-curvature="0" /><path
         d="m 13032,2357.2 c 0,0 75.9,-113.7 182.5,-138.3 106.6,-24.5 211.6,-63.6 212.4,-130.8 0.8,-67.3 -308.1,-107.4 -430.1,-39.6 -182.1,101.2 -200.6,70.7 -220.8,121.3 -20.2,50.6 24.3,185.8 23,201.9 -1.7,19.9 233,-14.5 233,-14.5"
         style="fill:#353a3d;fill-opacity:1;fill-rule:nonzero;stroke:none"
         id="path656"
         inkscape:connector-curvature="0" /><path
         d="m 13020.2,2413.3 c 0,0 13.8,-54.9 11.8,-56.1 -2.1,-1.2 -240.2,-29.5 -233,14.5 5.8,35.8 14.1,74.6 14.1,74.6 l 207.1,-33"
         style="fill:#81807e;fill-opacity:1;fill-rule:nonzero;stroke:none"
         id="path658"
         inkscape:connector-curvature="0" /><path
         d="m 12230.5,2364.7 c 0,0 54.2,-108.7 146.8,-145.8 99,-39.5 178.4,-85.1 176.6,-150.6 -1.8,-65.5 -242,-132 -416.7,-6.2 -110.4,79.5 -145.4,79.9 -163.1,129.9 -17.7,50.1 30.7,180.1 30.1,195.9 -0.8,19.4 226.3,-23.2 226.3,-23.2"
         style="fill:#353a3d;fill-opacity:1;fill-rule:nonzero;stroke:none"
         id="path660"
         inkscape:connector-curvature="0" /><path
         d="m 12233.2,2421.2 c 0,0 -0.6,-55.4 -2.7,-56.5 -2,-1 -232.2,-20 -226.3,23.2 4.6,34.2 22.3,75.6 22.3,75.6 l 206.7,-42.3"
         style="fill:#81807e;fill-opacity:1;fill-rule:nonzero;stroke:none"
         id="path662"
         inkscape:connector-curvature="0" /><path
         d="m 13077.1,5743.3 c 0,0 213.9,-943.2 262.7,-1230.5 41.6,-244.5 74.7,-499.1 54.8,-675.7 -24.7,-218.5 -334,-1351.2 -321.1,-1415.3 12.9,-64 -323.7,-10.2 -323.7,-10.2 0,0 235.2,1263.4 188.2,1498.6 -34.8,174.1 -339.8,1331.1 -386.5,1271.7 -46.8,-59.3 -104.7,-1091.9 -139.3,-1263.2 -34.7,-171.5 -140.9,-1525.8 -140.9,-1525.8 0,0 -237.6,-35 -301.1,18.7 0,0 -28.9,1156.4 -6.9,1477.8 8.5,122.4 -143.4,1468.3 51.3,2010.2 103,286.3 1062.5,-156.3 1062.5,-156.3"
         style="fill:#2d3133;fill-opacity:1;fill-rule:nonzero;stroke:none"
         id="path664"
         inkscape:connector-curvature="0" /><path
         d="m 14007.9,6600.7 c -152.4,21.4 -631.9,-191 -675.5,-174.9 -29.9,11 -100.2,240.1 -150.5,413.5 -29.7,102.6 -52.3,185.6 -55.5,192.5 l -0.2,0.4 c 0.5,-4.6 8.3,-83 -1.6,-186.1 -0.7,-6.6 -3.7,-8.4 -4.5,-15.3 -0.2,-1.7 -1.2,-7.3 -1.9,-9 -11.2,-25.4 -15.3,-73.2 -25.6,-113 -15.2,-58.7 -23.6,-138.7 -17.5,-222.1 v -0.3 c -0.1,-0.7 -0.1,-1.3 -0.2,-1.9 0,-1.9 -0.1,-3.8 -0.1,-5.7 0,-0.7 -0.1,-1.5 -0.1,-2.3 -4.2,-148.5 6,-308.6 10.3,-393.8 6.7,-131.9 -36.7,-191.4 -38,-193.1 v 0 l -46,6.4 -33.1,4.7 -0.5,0.1 -44.3,6.2 -173.9,24.4 -63,8.9 -14.8,2.1 -110.2,15.5 -310.6,43.7 -34.1,4.8 -14,1.9 -117.2,16.6 -52.9,7.4 h -0.2 c 0,0 -45,318.9 -48.4,491.3 -3.1,158.3 -87.9,479.8 -101.7,531.2 -0.1,0.4 -0.2,0.7 -0.3,1.1 -0.1,0.5 -0.2,0.9 -0.4,1.4 -0.2,0.9 -0.4,1.6 -0.6,2.2 -0.1,0.4 -0.2,0.8 -0.3,1.2 0,0.1 0,0.2 -0.1,0.2 0,0.2 0,0.3 0,0.4 -0.2,0.4 -0.2,0.5 -0.2,0.5 0,0 -253.5,-266.3 -302.7,-382.5 -15,-35.3 -60.8,-131.2 -119.2,-247.9 -40,76.2 -65,129.1 -65,142.4 0,1.6 0.1,3.4 0.1,5.2 3.8,114.9 124.2,580.8 219.2,885.2 73.8,148.3 137.4,268.3 157.8,282.9 31,22.2 161.1,77.9 274.7,123 3.7,1.5 7.4,3 11.1,4.4 10.6,4.2 21,8.3 31.2,12.2 5,2 10,3.9 15,5.8 2.7,1 5.3,2 8,3 2.2,0.9 4.3,1.7 6.5,2.5 v 0 c 56.8,21.6 100,36.7 108.9,37.2 1.4,0.1 3.8,0.1 7,0 3.8,-0.1 8.6,-0.3 14.4,-0.7 70.2,-4.1 279.7,-23.7 347.1,-30.1 12.3,-1.2 19.9,-1.9 21,-2 0.1,0 0.2,0 0.2,0 0,0 32.1,-14.7 80.4,-36.8 h 0.1 l 4.5,-2.1 c 29.2,-13.4 63,-31.2 98.8,-50.8 70.1,-38.4 147.5,-83.3 211.7,-113.9 62.9,-29.9 149.1,-71.6 156.5,-77.5 l 319,-919.8 553.3,101.1 -31.9,-201.9"
         style="fill:#decbc4;fill-opacity:1;fill-rule:nonzero;stroke:none"
         id="path666"
         inkscape:connector-curvature="0" /><path
         d="m 13047,5889.6 c 0,0 23.4,-27.9 30.1,-146.3 0,0 -960.9,112.1 -1062.5,156.3 0,0 -3.9,130.4 17.6,132.7 23.7,2.5 1014.8,-142.7 1014.8,-142.7"
         style="fill:#495055;fill-opacity:1;fill-rule:nonzero;stroke:none"
         id="path668"
         inkscape:connector-curvature="0" /><path
         d="m 12227.6,7967.8 c 2.9,-150.8 294.9,-233.3 294.9,-233.3 0,0 122.2,153.1 93,167.8 -11.5,5.8 -16.1,28.6 -17.5,54.2 -1.4,24.4 0.2,51.4 1.6,68.4 0.9,10.7 1.7,17.6 1.7,17.6 0,0 -41.7,44 -94.8,96.4 -92.7,91.7 -220.2,209.2 -220.4,162.5 0,-2.5 0.3,-5.5 1,-8.9 22.5,-105.2 -59.5,-324.7 -59.5,-324.7"
         style="fill:#eea886;fill-opacity:1;fill-rule:nonzero;stroke:none"
         id="path670"
         inkscape:connector-curvature="0" /><path
         d="m 12251.8,6009.2 c 0,0 -21,-132.3 -22.8,-166.8 l -44.5,8.9 c 0,0 12.3,139.9 19.5,163.4 l 47.8,-5.5"
         style="fill:#353a3d;fill-opacity:1;fill-rule:nonzero;stroke:none"
         id="path672"
         inkscape:connector-curvature="0" /><path
         d="m 12966.8,5905.1 c 0,0 16.9,-120.3 17.3,-165.7 l -47,6.2 c 0,0 -9.7,150.1 -15.1,165.8 l 44.8,-6.3"
         style="fill:#353a3d;fill-opacity:1;fill-rule:nonzero;stroke:none"
         id="path674"
         inkscape:connector-curvature="0" /><path
         d="m 12340,8188.8 v 0 c 0.6,-0.9 13,-19.4 34.1,-46 44.9,-56.4 129.1,-149.1 223.9,-186.3 -1.4,24.4 0.2,51.4 1.6,68.4 9.7,0.3 19.4,1.4 29,3.5 -26,45.4 -63.5,93 -63.5,93 l -58.6,17.5 -166.5,49.9"
         style="fill:#a77860;fill-opacity:1;fill-rule:nonzero;stroke:none"
         id="path676"
         inkscape:connector-curvature="0" /><path
         d="m 12284,8299.3 c 25.2,-54.9 49.2,-94.7 56,-110.5 v 0 c 4.5,-10.3 16.5,-27.1 34.1,-46 48.1,-51.9 137.6,-120.3 225.5,-117.9 9.7,0.3 19.4,1.4 29,3.5 35.5,7.8 77.5,24.3 100.5,69.5 182.2,356.6 50.3,648.3 50.3,648.3 0,0 -498.1,140.8 -576,-9.1 -54.7,-105.2 21.2,-308.6 80.6,-437.8"
         style="fill:#eea886;fill-opacity:1;fill-rule:nonzero;stroke:none"
         id="path678"
         inkscape:connector-curvature="0" /><path
         d="m 12779.4,8746.2 c 0,0 46.3,2.5 57.7,90.2 11.3,86.7 -11.6,110.7 -11.6,110.7 0,0 -205.6,86.1 -279.4,97.3 -73.9,11.2 -255.5,21.9 -298,-26.8 0,0 -103.4,24.1 -131.6,-147.6 -44.7,-272.4 152.3,-536.8 152.3,-536.8 0,0 -1.7,177.9 37.6,201.5 39.2,23.6 73.1,-32.5 73.1,-32.5 l 80.2,-14.4 c 0,0 -121.9,263.3 24.4,273 146.2,9.8 211.6,-29.9 295.3,-14.6"
         style="fill:#d6d6d6;fill-opacity:1;fill-rule:nonzero;stroke:none"
         id="path680"
         inkscape:connector-curvature="0" /><path
         d="m 12377.3,8573.1 c -7.7,78.4 -149.4,108.3 -139.9,26.2 9.5,-82.2 79.3,-161.1 111.5,-158.3 32.3,2.7 34.2,72.4 28.4,132.1"
         style="fill:#eea886;fill-opacity:1;fill-rule:nonzero;stroke:none"
         id="path682"
         inkscape:connector-curvature="0" /><path
         d="m 11925.4,6488.6 c 0,-57.2 -18.6,-122.7 -47.2,-192.4 -0.8,-1.8 -1.5,-3.6 -2.2,-5.3 -19.7,42 -38.3,82.3 -54.9,119.6 0,0.1 -0.1,0.1 -0.1,0.2 -45.7,102.4 -77.1,182.2 -78.9,213.8 -11.3,203.1 138.3,436.8 138.3,436.8 0,-0.1 0,-0.2 0,-0.4 0.1,0 0.1,-0.1 0.1,-0.2 0.1,-0.4 0.2,-0.8 0.3,-1.2 0.2,-0.7 0.5,-1.4 0.6,-2.2 0.2,-0.5 0.3,-0.9 0.4,-1.4 0.1,-0.4 0.2,-0.7 0.3,-1.1 30.6,-120.7 43.3,-566.2 43.3,-566.2 z m -467.1,-57.2 c 61.7,-117.8 159.2,-291.2 255.4,-459.2 -12.7,-23.7 -25.1,-47.1 -36.9,-70.3 -29,-56.6 -54.6,-111.4 -72.9,-162.4 -21.9,-61.5 -52.4,-218.8 6,-248 l 307.4,-169.7 c 0,0 2.1,6 6.2,17.1 10.2,27.6 32.2,86.7 62.8,163.2 1,2.5 4.1,9.8 8.6,20.5 6.1,14.4 15,35 25,58.5 4.6,10.6 9.3,21.7 14.2,33.1 5.6,13 11.4,26.5 17.1,39.8 8.4,19.5 16.7,38.9 24.4,56.8 21,48.8 37.4,86.8 37.4,86.8 1,2.3 2,4.5 3.1,6.8 10,21.6 20.2,43.3 30.7,65 16.1,33.5 32.8,66.9 49.8,99.5 1.7,3.3 3.4,6.6 5.1,9.9 3,5.8 6.1,11.5 9.1,17.2 1.9,3.5 3.8,6.9 5.7,10.4 0.4,0.8 0.8,1.5 1.3,2.3 0.7,1.4 1.5,2.8 2.2,4.1 88.9,162.1 189,297.7 220.9,496.5 3.1,19.1 6,38.2 8.8,57.2 4.7,31.5 8.9,62.7 12.8,93.2 1.4,11.5 2.9,23 4.3,34.3 16,132.6 25.5,250.8 33.2,333.1 24.1,256.4 -133,534.1 -253.6,705.6 -64.5,91.7 -118.5,153.1 -128.9,164.7 -0.2,0.2 -0.4,0.4 -0.6,0.6 -2.2,-0.8 -4.3,-1.6 -6.5,-2.5 -2.7,-1 -5.3,-2 -8,-3 -5,-1.9 -10,-3.8 -15,-5.8 -10.2,-3.9 -20.6,-8 -31.2,-12.2 -3.7,-1.4 -7.4,-2.9 -11.1,-4.4 -116.8,-45.8 -392,-127.2 -422.9,-149.3 -17.9,-12.8 -28.5,-116.1 -74.6,-263.9 -95,-304.4 -151.4,-763.3 -154.2,-877.9 0,-1.8 -0.1,-3.6 -0.1,-5.2 0,-13.3 25,-66.2 65,-142.4"
         style="fill:#3c4145;fill-opacity:1;fill-rule:nonzero;stroke:none"
         id="path684"
         inkscape:connector-curvature="0" /><path
         d="m 14212.1,6912.4 -696,-151.5 -331.8,867.6 c -7.3,5.8 -102.5,57 -165.4,87 -65.6,31.2 -148.6,69.8 -222.2,103.7 -35.1,16.3 -68.3,31.5 -96.2,44.3 l -2.3,-1.8 c 0,0 41.1,-136.8 94.2,-478.2 0,-0.1 0,-0.1 0,-0.2 1.9,-11.4 3.6,-23.1 5.5,-35 0.1,-1.4 0.4,-2.8 0.6,-4.2 1.2,-7.9 2.4,-15.9 3.6,-24 0.1,-1 0.3,-1.9 0.4,-2.8 0.8,-5.5 1.7,-11 2.4,-16.5 2,-13.5 4,-27.3 6,-41.3 23.7,-166.2 57,-449 89,-734.6 v -0.1 c 25.2,-225.1 82.8,-456.1 101.1,-628.4 0,-0.1 0,-0.2 0,-0.4 3.7,-33.7 12.3,-78.8 24,-129.5 1.3,-5.8 2.6,-11.6 4,-17.5 51.5,-217.5 151.5,-525.5 151.5,-525.5 l 29.1,26.9 86.2,79.6 c 19.9,18.3 27.4,46.4 19.4,72.1 -47.8,154.3 -210.4,700.3 -240.1,1084.3 -0.1,0.1 -0.1,0.2 -0.1,0.3 -9.3,120.6 25.9,234.2 46.4,342 0.4,-1 0.7,-1.9 1,-2.9 17.2,-47.6 36.1,-99.3 55.2,-149.7 v 0 c 51.3,-135.3 103.8,-260.7 125.7,-268.7 48.6,-17.9 965.1,232.7 971.4,268.7 l -62.6,236.3"
         style="fill:#3c4145;fill-opacity:1;fill-rule:nonzero;stroke:none"
         id="path686"
         inkscape:connector-curvature="0" /><path
         d="m 12198,7523.8 142,-80.1 -60.7,-61.9 161.6,-872.6 c 33,204.5 48,398.8 59.1,517.9 37.2,396.4 -358.5,843.6 -383.1,870.9 -19,-7.2 -39.5,-15.1 -60.7,-23.5 l 141.8,-350.7"
         style="fill:#51565c;fill-opacity:1;fill-rule:nonzero;stroke:none"
         id="path688"
         inkscape:connector-curvature="0" /><path
         d="m 12696,7865.6 c 0,0 53.1,-173.4 114.9,-606 23.7,-166.3 57,-449.2 89,-734.7 l 33.1,817.2 -67.7,73.3 60.1,75.2 -128.7,328.6 c -35.1,16.3 -68.2,31.5 -96.2,44.3 l -4.5,2.1"
         style="fill:#51565c;fill-opacity:1;fill-rule:nonzero;stroke:none"
         id="path690"
         inkscape:connector-curvature="0" /><path
         d="m 12109.8,7896.3 117.8,71.5 c 0,0 3.2,-64.6 294.9,-233.3 l -82.8,-233.3 -329.9,395.1"
         style="fill:#f5e2d9;fill-opacity:1;fill-rule:nonzero;stroke:none"
         id="path692"
         inkscape:connector-curvature="0" /><path
         d="m 12600.1,7935.3 c 0,0 -4.6,-69.7 -77.6,-200.8 l 161.7,-210.7 11.8,341.8 -95.9,69.7"
         style="fill:#f5e2d9;fill-opacity:1;fill-rule:nonzero;stroke:none"
         id="path694"
         inkscape:connector-curvature="0" /><path
         d="m 12522.1,7734.5 c 0,0 -31.3,-125.3 -20.1,-160.4 0,0 68.9,-25.1 118.4,6.3 0,0 -35,87.7 -98.3,154.1"
         style="fill:#0064b5;fill-opacity:1;fill-rule:nonzero;stroke:none"
         id="path696"
         inkscape:connector-curvature="0" /><path
         d="m 12684.1,5927.1 c 17.5,88.4 0.8,353.4 0.1,364.6 l -15,-0.9 c 0.1,-2.8 17.3,-274.3 0.1,-360.8 l 14.8,-2.9"
         style="fill:#ad9f99;fill-opacity:1;fill-rule:nonzero;stroke:none"
         id="path698"
         inkscape:connector-curvature="0" /><path
         d="m 12561.4,5967.9 c 0,0 141.4,-16.9 188.1,-28.6 l -6.1,-158.4 -185.1,19.7 3.1,167.3"
         style="fill:#69737a;fill-opacity:1;fill-rule:nonzero;stroke:none"
         id="path700"
         inkscape:connector-curvature="0" /><path
         d="m 12592.3,7591.7 c 0,0 157.7,-398.3 132,-844 -26.7,-462.2 -70.4,-629.8 -70.4,-629.8 l -97.2,-121.9 -42.9,149.9 c 0,0 130.4,589.2 46.2,1162.5 -15.2,103.9 -37.9,300.8 -37.9,300.8 l 70.2,-17.5"
         style="fill:#0064b5;fill-opacity:1;fill-rule:nonzero;stroke:none"
         id="path702"
         inkscape:connector-curvature="0" /><path
         d="m 12118.5,5711 c 0,0 33.8,-67.7 67.6,-79 33.9,-11.3 83.2,-66.3 83.2,-66.3 l -238.2,-125.4 c 0,0 -63.5,124 -66.3,203 -2.8,78.9 153.7,67.7 153.7,67.7"
         style="fill:#eea886;fill-opacity:1;fill-rule:nonzero;stroke:none"
         id="path704"
         inkscape:connector-curvature="0" /><path
         d="m 12141.1,5704.6 15.8,-31.7 c 0,0 -151.4,-110.7 -192.1,-117.7 l -14,42.3 190.3,107.1"
         style="fill:#decbc4;fill-opacity:1;fill-rule:nonzero;stroke:none"
         id="path706"
         inkscape:connector-curvature="0" /><path
         d="m 12156.9,5703.2 c 0,0 -113.4,-93.7 -209,-137 l -321.4,578.1 166.6,322 c 0,0 356.3,-706.7 363.8,-763.1"
         style="fill:#3c4145;fill-opacity:1;fill-rule:nonzero;stroke:none"
         id="path708"
         inkscape:connector-curvature="0" /><path
         d="m 13122.4,6825.8 c 17.2,-47.6 36.1,-99.3 55.2,-149.7 4.5,58.4 5.6,112.8 4.3,163.2 -7.6,299.9 -102,457.1 -102,457.1 21.7,-52.3 32.1,-164.4 37,-265.8 5.3,-106.9 4.5,-201.9 4.5,-201.9 v 0 l 1,-2.9"
         style="fill:#2d3133;fill-opacity:1;fill-rule:nonzero;stroke:none"
         id="path710"
         inkscape:connector-curvature="0" /><path
         d="m 11676.8,5901.9 257.3,-310.7 -220.4,381 c -12.7,-23.7 -25.1,-47.1 -36.9,-70.3"
         style="fill:#2d3133;fill-opacity:1;fill-rule:nonzero;stroke:none"
         id="path712"
         inkscape:connector-curvature="0" /><path
         d="m 13545.3,6291.5 h 594.1 c 40.7,0 76.1,27.9 85.7,67.5 l 258,1065.4 c 13.5,55.5 -28.6,108.9 -85.7,108.9 h -594 c -40.8,0 -76.2,-27.8 -85.8,-67.4 l -258,-1065.4 c -13.4,-55.5 28.6,-109 85.7,-109"
         style="fill:#b8b8b8;fill-opacity:1;fill-rule:nonzero;stroke:none"
         id="path714"
         inkscape:connector-curvature="0" /><path
         d="m 14271.9,6587.7 c -29,26.9 -85.1,42.5 -133.1,74.6 -48,32.1 -7.9,65.2 -7.9,65.2 -49.4,16.9 -44.1,39.4 -37.8,54.8 8.6,20.7 62.5,14.8 62.5,14.8 0,0 -48.4,10.7 -68.2,19.5 -19.9,8.8 -13.2,43.5 17.4,54.4 30.6,11 155.2,-19.8 155.2,-19.8 0,0 -20.3,10 -81.8,40.8 -61.4,30.9 -74.9,58.9 -38.7,72.4 25.2,9.3 74.7,-10.3 169.7,-74.1 71.5,-48.1 65.7,-54.3 65.7,-54.3 0,0 -68.3,-280.4 -103,-248.3"
         style="fill:#eea886;fill-opacity:1;fill-rule:nonzero;stroke:none"
         id="path716"
         inkscape:connector-curvature="0" /><g
         id="g718"
         transform="scale(1.50109)" /><g
         id="g722"
         transform="scale(1.46369)" /><g
         id="g726"
         transform="scale(1.47228)" /><g
         id="g730"
         transform="scale(1.47823)" /></g></g></svg>