<?xml version="1.0" standalone="no"?>
<!DOCTYPE svg PUBLIC "-//W3C//DTD SVG 1.1//EN" "http://www.w3.org/Graphics/SVG/1.1/DTD/svg11.dtd" >
<svg>
<metadata>
Created by FontForge 20090622 at Sun Aug 23 05:29:49 2020
 By deploy user
Copyright (c) 2016, Valentin FRANCOIS (www.valentinfrancois.fr)

You can buy the full font (3 weights &#38; 110 characters) for just $1 at : https://thehungryjpeg.com/product/30976-golden-ratio

This demo is free for personal &#38; commercial use !


</metadata>
<defs>
<font id="GoldenRatioDemo-Regular" horiz-adv-x="650" >
  <font-face 
    font-family="Golden Ratio Demo"
    font-weight="500"
    font-stretch="normal"
    units-per-em="1000"
    panose-1="2 0 5 3 0 0 0 0 0 0"
    ascent="800"
    descent="-200"
    x-height="800"
    cap-height="800"
    bbox="0 -182 700 950"
    underline-thickness="75"
    underline-position="-150"
    unicode-range="U+0020-U+2019"
  />
<missing-glyph horiz-adv-x="500" 
d="M50 0v533h400v-533h-400zM100 50h300v433h-300v-433z" />
    <glyph glyph-name=".notdef" horiz-adv-x="500" 
d="M50 0v533h400v-533h-400zM100 50h300v433h-300v-433z" />
    <glyph glyph-name="uni0000" horiz-adv-x="385" 
 />
    <glyph glyph-name="uni0000" horiz-adv-x="385" 
 />
    <glyph glyph-name="nonmarkingreturn" horiz-adv-x="333" 
 />
    <glyph glyph-name="glyph188" unicode=" " horiz-adv-x="385" 
 />
    <glyph glyph-name="exclam" unicode="!" horiz-adv-x="225" 
d="M75 75v-37v-38h-37h-38v38v37h38h37zM75 800v-312v-313h-37h-38v313v312h38h37z" />
    <glyph glyph-name="quotedbl" unicode="&#x22;" horiz-adv-x="500" 
d="M275 600v162v163h37h38v-163v-162h-38h-37zM50 925h38h37v-163v-162h-37h-38v162v163z" />
    <glyph glyph-name="dollar" unicode="$" horiz-adv-x="549" 
d="M162 366q-67 13 -114.5 70.5t-47.5 126t47.5 126t114.5 70.5v41h76v-41q55 -11 101.5 -57.5t56.5 -101.5l-2 -1l-3 -2l-33 -10l-34 -11q-2 21 -11 41q-7 13 -21 29t-27 24q-13 7 -27 12v-248q67 -13 114.5 -70.5t47.5 -126t-47.5 -126t-114.5 -70.5v-41h-76v41
q-55 11 -101.5 57.5t-56.5 101.5l36 12l36 11q2 -21 11 -40q7 -14 21 -29.5t27 -23.5q13 -7 27 -12v248zM288 326q-10 11 -23 18.5t-27 12.5v-239q14 5 27 12q25 16 42.5 47t17.5 61q0 21 -10.5 47t-26.5 41zM112 651q-16 -15 -26.5 -41t-10.5 -48q0 -29 17.5 -60t42.5 -47
q13 -7 27 -12v239q-14 -5 -27 -12.5t-23 -18.5z" />
    <glyph glyph-name="ampersand" unicode="&#x26;" horiz-adv-x="803" 
d="M61 60q-25 25 -43 68t-18 78.5t18 78.5t43 69l47 46l47 47l-34 33l-33 33q-20 21 -34.5 55.5t-14.5 63.5t14.5 64t35 55.5t55.5 35t63.5 14.5t63.5 -14.5t55.5 -35t35 -55.5t14.5 -64t-14.5 -63.5t-34.5 -55.5l-33 -33l-34 -33l47 -47l47 -46l47 -47l47 -47l76 76l76 76
l27 -27l26 -26l-76 -76l-76 -76l76 -76l76 -76l-26 -27l-27 -26l-76 76l-76 76l-47 -47l-47 -47l-26 27l-27 26l47 47l47 47l-47 47l-47 47l-47 46l-46 47l-47 -47l-47 -46q-16 -16 -27.5 -43.5t-11.5 -50.5q0 -55 39 -94t93 -39q23 0 50.5 11.5t43.5 27.5l27 -26l26 -27
q-25 -25 -68 -43t-78.5 -18t-78.5 18t-68 43zM141 566l33 -33l34 -33l33 33l33 33q11 11 19 30.5t8 35.5q0 39 -27.5 66.5t-66 27.5t-66 -27.5t-27.5 -66.5q0 -16 8 -35.5t19 -30.5z" />
    <glyph glyph-name="quotesingle" unicode="'" horiz-adv-x="275" 
d="M0 925h38h37v-163v-162h-37h-38v162v163z" />
    <glyph glyph-name="parenleft" unicode="(" horiz-adv-x="415" 
d="M55 105q-22 59 -38.5 145.5t-16.5 149.5t16.5 149.5t38.5 145.5q27 70 66 133q39 65 88 122l29 -24l28 -25q-94 -109 -142 -237q-20 -53 -34.5 -130t-14.5 -134t14.5 -134t34.5 -130q48 -128 142 -237l-28 -25l-29 -24q-49 57 -88 122q-39 63 -66 133z" />
    <glyph glyph-name="parenright" unicode=")" horiz-adv-x="415" 
d="M211 105q22 59 38.5 145.5t16.5 149.5t-16.5 149.5t-38.5 145.5q-27 70 -66 133q-39 65 -88 122l-29 -24l-28 -25q94 -109 142 -237q20 -53 34.5 -130t14.5 -134t-14.5 -134t-34.5 -130q-48 -128 -142 -237l28 -25l29 -24q49 57 88 122q39 63 66 133z" />
    <glyph glyph-name="comma" unicode="," horiz-adv-x="301" 
d="M0 -129q25 25 48 70q29 57 29 109v75h75v-75q0 -72 -39 -147q-28 -54 -60 -85l-26 26z" />
    <glyph glyph-name="hyphen" unicode="-" horiz-adv-x="550" 
d="M400 438v-38v-38h-200h-200v38v38h200h200z" />
    <glyph glyph-name="period" unicode="." horiz-adv-x="225" 
d="M75 75v-37v-38h-37h-38v38v37h38h37z" />
    <glyph glyph-name="slash" unicode="/" horiz-adv-x="427" 
d="M277 800l-100 -400l-100 -400h-38h-39l100 400l100 400h39h38z" />
    <glyph glyph-name="zero" unicode="0" horiz-adv-x="699" 
d="M274.5 0q-121.5 0 -198.5 117q-76 114 -76 283t76 283q77 117 199 117q124 0 201 -117q74 -113 74 -283q0 -169 -76 -283q-78 -117 -199.5 -117zM75 400v-1q0 -35 4 -69t13 -66q8 -29 20 -57q11 -25 26 -48q13 -20 30 -37q15 -15 33 -26q17 -11 35.5 -16t38 -5t38.5 5
t36 16q18 11 33 26q17 17 30 37q15 23 26 48q12 28 20 57q8 32 13 66q4 34 4 69v1v1q0 35 -4 70q-4 33 -13 66q-7 29 -19 56q-11 26 -26 49q-13 19 -29 36q-15 15 -33 26q-17 11 -36.5 16t-39.5 5v0q-20 0 -38 -5q-19 -5 -36 -16q-18 -11 -33 -26q-17 -17 -30 -37
q-15 -23 -26 -48q-12 -28 -20 -57q-9 -32 -13 -66t-4 -69v-1z" />
    <glyph glyph-name="one" unicode="1" horiz-adv-x="550" 
d="M325 650l-140 -105l-140 -105l-23 30l-22 30l200 150l200 150v-54v-55v-51v-51v-294v-295h-38h-37v279v280v45v46z" />
    <glyph glyph-name="two" unicode="2" 
d="M500 550q0 -39 -18 -87.5t-44 -77.5v0l-136 -155l-136 -155h334v-75h-500l134 152l248 283v0q18 20 30.5 54t12.5 61q0 73 -51.5 124t-124 51t-123.5 -51t-51 -124q0 -30 15 -66.5t36 -57.5l-26 -26l-27 -27q-30 31 -51.5 82.5t-21.5 94.5q0 104 73 177t176.5 73t177 -73
t73.5 -177z" />
    <glyph glyph-name="three" unicode="3" 
d="M371 469q53 -30 91 -94t38 -125q0 -103 -73 -176.5t-176.5 -73.5t-177 73.5t-73.5 176.5q0 13 1.5 25.5t3.5 24.5l37 -7l36 -8l-2 -17.5t-1 -17.5q0 -73 51.5 -124t124 -51t123.5 51t51 123.5t-51 124t-124 51.5h-25v75h25q47 0 80 33t33 79.5t-33 79.5t-80 33t-80 -33
t-33 -79q0 -15 4 -29t11 -27l-33 -18l-32 -19q-10 18 -17.5 45t-7.5 48q0 77 55 132t133 55t133 -55t55 -132q0 -37 -20 -79t-47 -65z" />
    <glyph glyph-name="four" unicode="4" 
d="M400 725v-375h100v-75h-100v-275h-75v275h-325v75l162 225l163 225h75v-75zM93 350h232v322l-116 -161z" />
    <glyph glyph-name="five" unicode="5" horiz-adv-x="649" 
d="M250 500q103 0 176.5 -73t73.5 -176.5t-73 -177t-177 -73.5q-103 0 -176 73t-74 176h75q1 -72 52 -123t123 -51q73 0 124 51t51 123.5t-51 124t-124 51.5v0h-200v375h400v-75h-325v-225h125z" />
    <glyph glyph-name="six" unicode="6" 
d="M250 500q104 0 177 -73t73 -177t-73 -177t-177 -73t-177 73t-73 177v137q0 77 33 152t93 135t135 93t152 33v-75q-118 0 -217 -88q-98 -87 -117 -205q29 28 79.5 48t91.5 20zM374 126q24 25 38 57q13 32 13 67q0 72 -51 122.5t-123 50.5t-123 -50.5t-51 -122.5t51 -123
t123 -51q30 0 66 14.5t57 35.5z" />
    <glyph glyph-name="seven" unicode="7" horiz-adv-x="600" 
d="M368 800h1h2h40h39l-184 -400l-184 -400h-40h-40l166 362l165 363h-166h-167v37v38h184h184z" />
    <glyph glyph-name="eight" unicode="8" 
d="M371 469q53 -30 91 -94t38 -125q0 -104 -73 -177t-177 -73t-177 73t-73 177q0 61 38 125t91 94q-27 23 -47 65t-20 79q0 77 55 132t133 55t133 -55t55 -132q0 -37 -20 -79t-47 -65zM170 533q16 -16 36.5 -24.5t43.5 -8.5q46 0 78.5 32.5t32.5 79t-32.5 79.5t-79 33
t-79 -33t-32.5 -79q0 -19 9.5 -42.5t22.5 -36.5zM374 126q24 25 38 57q13 32 13 67q0 72 -51 122.5t-123 50.5t-123 -50.5t-51 -122.5t51 -123t123 -51q30 0 66 14.5t57 35.5z" />
    <glyph glyph-name="nine" unicode="9" 
d="M250 800q104 0 177 -73t73 -177v-300q0 -104 -73.5 -177t-176.5 -73q-85 0 -156.5 58.5t-88.5 141.5l37 7l36 8q6 -25 18 -48q20 -38 65.5 -65t88.5 -27q72 0 123.5 51.5t51.5 123.5v121q-30 -29 -81.5 -50t-93.5 -21q-104 0 -177 73t-73 176.5t73 177t177 73.5zM374 426
q24 25 38 57q13 32 13 67q0 72 -51 122.5t-123 50.5t-123 -50.5t-51 -122.5t51 -123t123 -51q30 0 66 14.5t57 35.5z" />
    <glyph glyph-name="colon" unicode=":" horiz-adv-x="225" 
d="M75 475v-37v-38h-37h-38v38v37h38h37zM75 75v-37v-38h-37h-38v38v37h38h37z" />
    <glyph glyph-name="question" unicode="?" horiz-adv-x="600" 
d="M85 522l-36 -13l-35 -13q-14 38 -14 79q0 93 66 159t159 66t159 -66t66 -159v-1q0 -29 -7.5 -56.5t-22.5 -52.5q-12 -20 -29 -38q-10 -12 -32 -34q-49 -50 -67 -83q-30 -55 -30 -135h-74q0 100 39 172q23 42 79 99q37 37 49 57q20 32 20 72q0 62 -44 106t-106 44
t-106 -44t-44 -106q0 -14 2.5 -27t7.5 -26zM188 0v38v37h37h37v-37v-38h-37h-37z" />
    <glyph glyph-name="A" unicode="A" 
d="M288 800l212 -800h-75l-59 225h-229l-59 -225h-78l212 800h76zM157 300h189l-92 344l-3 11l-1 -6l-1 -2l-1 -6z" />
    <glyph glyph-name="B" unicode="B" horiz-adv-x="649" 
d="M250 0h-250v800h212h1q77 0 132 -55t55 -132q0 -32 -16 -70.5t-38 -61.5q64 -27 109 -94.5t45 -136.5q0 -103 -73.5 -176.5t-176.5 -73.5zM75 725v-225h137h1q46 0 79 33t33 79.5t-33 79.5t-79 33h-1h-137zM75 425v-350h175q73 0 124 51.5t51 123.5t-51 123.5t-124 51.5
h-175z" />
    <glyph glyph-name="C" unicode="C" horiz-adv-x="649" 
d="M300 0q-124 0 -212 88t-88 212v200q0 124 88 212t212 88q47 0 106 -22.5t94 -53.5l-25 -28l-25 -28q-27 24 -71 40.5t-79 16.5q-93 0 -159 -66t-66 -159v-200q0 -93 66 -159t159 -66q35 0 79 16.5t71 40.5l25 -28l25 -28q-35 -31 -93.5 -53.5t-106.5 -22.5z" />
    <glyph glyph-name="D" unicode="D" 
d="M100 0h-100v800h100q166 0 283 -117t117 -283t-117 -283t-283 -117zM75 725v-650h25h1q41 0 94 16t86 39q22 15 48 41t41 48q17 26 29 55q13 29 19.5 61t6.5 65t-6.5 65t-19.5 61q-12 29 -29 55q-15 22 -41 48t-48 41t-56 29t-60 20q-32 6 -65 6h-25z" />
    <glyph glyph-name="E" unicode="E" 
d="M75 0h-13h-12h-25h-25v400v400h25h25h12h13h213h212v-38v-37h-212h-213v-113v-112h113h112v-38v-37h-112h-113v-175v-175h213h212v-37v-38h-212h-213z" />
    <glyph glyph-name="F" unicode="F" horiz-adv-x="648" 
d="M75 425v-213v-212h-37h-38v212v213v37v38v112v113v37v38h38h37h212h212v-38v-37h-212h-212v-113v-112h114h113v-38v-37h-113h-114z" />
    <glyph glyph-name="G" unicode="G" horiz-adv-x="750" 
d="M300 0q-124 0 -212 88t-88 212v200q0 124 88 212t212 88q47 0 106 -22.5t94 -53.5l-25 -28l-25 -28q-27 24 -71 40.5t-79 16.5q-93 0 -159 -66t-66 -159v-200q0 -93 66 -159t159 -66t159 66t66 159h-175v75h250v-75q0 -124 -88 -212t-212 -88z" />
    <glyph glyph-name="H" unicode="H" 
d="M425 500v150v150h37h38v-400v-400h-38h-37v212v213h-175h-175v-213v-212h-37h-38v400v400h38h37v-150v-150h175h175z" />
    <glyph glyph-name="I" unicode="I" horiz-adv-x="225" 
d="M75 800v-400v-400h-37h-38v400v400h38h37z" />
    <glyph glyph-name="J" unicode="J" horiz-adv-x="550" 
d="M188 0h-1q-52 0 -107 33t-80 79l33 18l33 18q5 -9 11 -17t13 -16q17 -16 45.5 -28t52.5 -12q56 0 96.5 40t40.5 97v588h75v-588q0 -87 -62.5 -149.5t-149.5 -62.5z" />
    <glyph glyph-name="K" unicode="K" horiz-adv-x="651" 
d="M75 344v-172v-172h-37h-38v400v400h38h37v-172v-172l162 172l161 172h30h30h22h21l-188 -200l-188 -200l188 -200l188 -200h-21h-22h-30h-30l-161 172z" />
    <glyph glyph-name="L" unicode="L" horiz-adv-x="550" 
d="M75 0h-37h-38v38v37v363v362h38h37v-362v-363h163h162v-37v-38h-162h-163z" />
    <glyph glyph-name="M" unicode="M" horiz-adv-x="750" 
d="M75 255v-128v-127h-37h-38v400v400h38h37l113 -150l112 -150l113 150l112 150h38h37v-273v-272v-128v-127h-37h-38v338v337l-82 -110l-83 -110l-30 -40l-30 -40l-30 40l-30 40l-82 110l-83 110v-210v-210z" />
    <glyph glyph-name="N" unicode="N" 
d="M75 643v-321v-322h-37h-38v400v400h27h27h11h10l175 -322l175 -321v321v322h38h37v-400v-400h-27h-27h-11h-10l-175 322z" />
    <glyph glyph-name="O" unicode="O" horiz-adv-x="750" 
d="M300 800q124 0 212 -88t88 -212v-200q0 -124 -88 -212t-212 -88t-212 88t-88 212v200q0 124 88 212t212 88zM525 300v200q0 93 -66 159t-159 66t-159 -66t-66 -159v-200q0 -93 66 -159t159 -66t159 66t66 159z" />
    <glyph glyph-name="P" unicode="P" 
d="M75 250v-250h-75v800h225q114 0 194.5 -80.5t80.5 -194.5t-80.5 -194.5t-194.5 -80.5h-150zM75 725v-400h150q83 0 141.5 58.5t58.5 141.5t-58.5 141.5t-141.5 58.5h-150z" />
    <glyph glyph-name="Q" unicode="Q" horiz-adv-x="770" 
d="M300 0q-124 0 -212 88t-88 212v200q0 124 88 212t212 88t212 -88t88 -212v-200q0 -43 -18.5 -96.5t-43.5 -86.5l41 -42l42 -41l-27 -27l-27 -26l-41 41l-41 42q-34 -27 -88 -45.5t-97 -18.5zM75 500v-200q0 -93 66 -159t159 -66q35 0 69 11t62 31l-41 41l-42 42l27 26
l26 27l42 -41l41 -42q20 29 30 62q11 33 11 68v200q0 93 -66 159t-159 66t-159 -66t-66 -159z" />
    <glyph glyph-name="R" unicode="R" 
d="M225 800q114 0 194.5 -80.5t80.5 -194.5q0 -70 -44 -141.5t-106 -103.5q24 -15 50.5 -43.5t40.5 -53.5q14 -26 24 -64.5t10 -68.5v-50h-75v50q0 83 -58.5 141.5t-141.5 58.5h-125v-250h-75v800h225zM366 384q25 24 42 65.5t17 75.5q0 83 -58.5 141.5t-141.5 58.5h-150
v-400h150h1q34 0 75 17t65 42z" />
    <glyph glyph-name="S" unicode="S" 
d="M250 0q-104 0 -177 73t-73 177h75q0 -73 51.5 -124t124 -51t123.5 51t51 123.5t-51 124t-124 51.5q-78 0 -133 55t-55 132.5t55 132.5t133 55t133 -55t55 -133h-76v1q0 46 -33 79t-79.5 33t-79.5 -33t-33 -79.5t33 -79.5t80 -33q104 0 177 -73t73 -177t-73 -177t-177 -73
z" />
    <glyph glyph-name="T" unicode="T" 
d="M213 0v362v363h-107h-106v37v38h106h107h37h38h106h106v-38v-37h-106h-106v-363v-362h-38h-37z" />
    <glyph glyph-name="U" unicode="U" 
d="M250 0q-104 0 -177 73t-73 177v550h75v-550q0 -73 51.5 -124t123.5 -51t123.5 51t51.5 124v550h75v-550q0 -104 -73 -177t-177 -73z" />
    <glyph glyph-name="V" unicode="V" 
d="M288 0h-38h-38l-106 400l-106 400h39h39l10 -38l10 -37l76 -287l76 -287l76 287l76 287l10 37l10 38h39h39l-106 -400z" />
    <glyph glyph-name="W" unicode="W" horiz-adv-x="850" 
d="M188 0h-38h-37l-57 400l-56 400h38h38l5 -38l5 -37l43 -299l42 -300l56 105l57 105l33 61l33 61l33 -61l33 -61l57 -105l56 -105l42 300l43 299l5 37l5 38h38h38l-56 -400l-57 -400h-37h-38l-81 150l-81 150l-81 -150z" />
    <glyph glyph-name="X" unicode="X" 
d="M85 0h-43h-42l104 200l104 200l-104 200l-104 200h42h43l82 -159l83 -160l83 160l82 159h43h42l-104 -200l-104 -200l104 -200l104 -200h-42h-43l-82 159l-83 160l-83 -160z" />
    <glyph glyph-name="Y" unicode="Y" 
d="M250 481l83 160l82 159h43h42l-104 -200l-104 -200l-2 -5l-2 -4v-196v-195h-38h-38v195v196l-2 4l-2 5l-104 200l-104 200h42h43l82 -159z" />
    <glyph glyph-name="Z" unicode="Z" 
d="M83 0h-41h-42l188 362l189 363h-189h-188v37v38h208h208h1h41h42l-188 -362l-189 -363h189h188v-37v-38h-208h-208h-1z" />
    <glyph glyph-name="a" unicode="a" 
d="M137 225l-30 -113l-29 -112h-78l106 400l106 400h76l106 -400l106 -400h-75l-29 112l-30 113h-229zM250 649l-46 -174l-47 -175h189l-47 175l-46 174l-1 -3l-1 -3v3z" />
    <glyph glyph-name="b" unicode="b" horiz-adv-x="649" 
d="M250 0h-250v800h212h1q77 0 132 -55t55 -132q0 -32 -16 -70.5t-38 -61.5q64 -27 109 -94.5t45 -136.5q0 -103 -73.5 -176.5t-176.5 -73.5zM75 725v-225h137h1q46 0 79 33t33 79.5t-33 79.5t-79 33h-1h-137zM75 425v-350h175q73 0 124 51.5t51 123.5t-51 123.5t-124 51.5
h-175z" />
    <glyph glyph-name="c" unicode="c" horiz-adv-x="649" 
d="M300 0q-124 0 -212 88t-88 212v200q0 124 88 212t212 88q47 0 106 -22.5t94 -53.5l-25 -28l-25 -28q-27 24 -71 40.5t-79 16.5q-93 0 -159 -66t-66 -159v-200q0 -93 66 -159t159 -66q35 0 79 16.5t71 40.5l25 -28l25 -28q-35 -31 -93.5 -53.5t-106.5 -22.5z" />
    <glyph glyph-name="d" unicode="d" 
d="M100 0h-100v800h100q166 0 283 -117t117 -283t-117 -283t-283 -117zM75 725v-650h25h1q41 0 94 16t86 39q22 15 48 41t41 48q17 26 29 55q13 29 19.5 61t6.5 65t-6.5 65t-19.5 61q-12 29 -29 55q-15 22 -41 48t-48 41t-56 29t-60 20q-32 6 -65 6h-25z" />
    <glyph glyph-name="e" unicode="e" 
d="M75 0h-13h-12h-25h-25v400v400h25h25h12h13h213h212v-38v-37h-212h-213v-113v-112h113h112v-38v-37h-112h-113v-175v-175h213h212v-37v-38h-212h-213z" />
    <glyph glyph-name="f" unicode="f" horiz-adv-x="648" 
d="M75 425v-213v-212h-37h-38v212v213v37v38v112v113v37v38h38h37h212h212v-38v-37h-212h-212v-113v-112h114h113v-38v-37h-113h-114z" />
    <glyph glyph-name="g" unicode="g" horiz-adv-x="750" 
d="M300 0q-124 0 -212 88t-88 212v200q0 124 88 212t212 88q47 0 106 -22.5t94 -53.5l-25 -28l-25 -28q-27 24 -71 40.5t-79 16.5q-93 0 -159 -66t-66 -159v-200q0 -93 66 -159t159 -66t159 66t66 159h-175v75h250v-75q0 -124 -88 -212t-212 -88z" />
    <glyph glyph-name="h" unicode="h" 
d="M425 500v150v150h37h38v-400v-400h-38h-37v212v213h-175h-175v-213v-212h-37h-38v400v400h38h37v-150v-150h175h175z" />
    <glyph glyph-name="i" unicode="i" horiz-adv-x="225" 
d="M75 800v-400v-400h-37h-38v400v400h38h37z" />
    <glyph glyph-name="j" unicode="j" horiz-adv-x="550" 
d="M188 0h-1q-52 0 -107 33t-80 79l33 18l33 18q5 -9 11 -17t13 -16q17 -16 45.5 -28t52.5 -12q56 0 96.5 40t40.5 97v588h75v-588q0 -87 -62.5 -149.5t-149.5 -62.5z" />
    <glyph glyph-name="k" unicode="k" horiz-adv-x="651" 
d="M75 344v-172v-172h-37h-38v400v400h38h37v-172v-172l162 172l161 172h30h30h22h21l-188 -200l-188 -200l188 -200l188 -200h-21h-22h-30h-30l-161 172z" />
    <glyph glyph-name="l" unicode="l" horiz-adv-x="550" 
d="M75 0h-37h-38v38v37v363v362h38h37v-362v-363h163h162v-37v-38h-162h-163z" />
    <glyph glyph-name="m" unicode="m" horiz-adv-x="750" 
d="M75 255v-128v-127h-37h-38v400v400h38h37l113 -150l112 -150l113 150l112 150h38h37v-273v-272v-128v-127h-37h-38v338v337l-82 -110l-83 -110l-30 -40l-30 -40l-30 40l-30 40l-82 110l-83 110v-210v-210z" />
    <glyph glyph-name="n" unicode="n" 
d="M75 643v-321v-322h-37h-38v400v400h27h27h11h10l175 -322l175 -321v321v322h38h37v-400v-400h-27h-27h-11h-10l-175 322z" />
    <glyph glyph-name="o" unicode="o" horiz-adv-x="750" 
d="M300 800q124 0 212 -88t88 -212v-200q0 -124 -88 -212t-212 -88t-212 88t-88 212v200q0 124 88 212t212 88zM525 300v200q0 93 -66 159t-159 66t-159 -66t-66 -159v-200q0 -93 66 -159t159 -66t159 66t66 159z" />
    <glyph glyph-name="p" unicode="p" 
d="M75 250v-250h-75v800h225q114 0 194.5 -80.5t80.5 -194.5t-80.5 -194.5t-194.5 -80.5h-150zM75 725v-400h150q83 0 141.5 58.5t58.5 141.5t-58.5 141.5t-141.5 58.5h-150z" />
    <glyph glyph-name="q" unicode="q" horiz-adv-x="770" 
d="M300 0q-124 0 -212 88t-88 212v200q0 124 88 212t212 88t212 -88t88 -212v-200q0 -43 -18.5 -96.5t-43.5 -86.5l41 -42l42 -41l-27 -27l-27 -26l-41 41l-41 42q-34 -27 -88 -45.5t-97 -18.5zM75 500v-200q0 -93 66 -159t159 -66q35 0 69 11t62 31l-41 41l-42 42l27 26
l26 27l42 -41l41 -42q20 29 30 62q11 33 11 68v200q0 93 -66 159t-159 66t-159 -66t-66 -159z" />
    <glyph glyph-name="r" unicode="r" 
d="M225 800q114 0 194.5 -80.5t80.5 -194.5q0 -70 -44 -141.5t-106 -103.5q24 -15 50.5 -43.5t40.5 -53.5q14 -26 24 -64.5t10 -68.5v-50h-75v50q0 83 -58.5 141.5t-141.5 58.5h-125v-250h-75v800h225zM366 384q25 24 42 65.5t17 75.5q0 83 -58.5 141.5t-141.5 58.5h-150
v-400h150h1q34 0 75 17t65 42z" />
    <glyph glyph-name="s" unicode="s" 
d="M250 0q-104 0 -177 73t-73 177h75q0 -73 51.5 -124t124 -51t123.5 51t51 123.5t-51 124t-124 51.5q-78 0 -133 55t-55 132.5t55 132.5t133 55t133 -55t55 -133h-76v1q0 46 -33 79t-79.5 33t-79.5 -33t-33 -79.5t33 -79.5t80 -33q104 0 177 -73t73 -177t-73 -177t-177 -73
z" />
    <glyph glyph-name="t" unicode="t" 
d="M213 0v362v363h-107h-106v37v38h106h107h37h38h106h106v-38v-37h-106h-106v-363v-362h-38h-37z" />
    <glyph glyph-name="u" unicode="u" 
d="M250 0q-104 0 -177 73t-73 177v550h75v-550q0 -73 51.5 -124t123.5 -51t123.5 51t51.5 124v550h75v-550q0 -104 -73 -177t-177 -73z" />
    <glyph glyph-name="v" unicode="v" 
d="M288 0h-38h-38l-106 400l-106 400h39h39l10 -38l10 -37l76 -287l76 -287l76 287l76 287l10 37l10 38h39h39l-106 -400z" />
    <glyph glyph-name="w" unicode="w" horiz-adv-x="850" 
d="M188 0h-38h-37l-57 400l-56 400h38h38l5 -38l5 -37l43 -299l42 -300l56 105l57 105l33 61l33 61l33 -61l33 -61l57 -105l56 -105l42 300l43 299l5 37l5 38h38h38l-56 -400l-57 -400h-37h-38l-81 150l-81 150l-81 -150z" />
    <glyph glyph-name="x" unicode="x" 
d="M85 0h-43h-42l104 200l104 200l-104 200l-104 200h42h43l82 -159l83 -160l83 160l82 159h43h42l-104 -200l-104 -200l104 -200l104 -200h-42h-43l-82 159l-83 160l-83 -160z" />
    <glyph glyph-name="y" unicode="y" 
d="M250 481l83 160l82 159h43h42l-104 -200l-104 -200l-2 -5l-2 -4v-196v-195h-38h-38v195v196l-2 4l-2 5l-104 200l-104 200h42h43l82 -159z" />
    <glyph glyph-name="z" unicode="z" 
d="M83 0h-41h-42l188 362l189 363h-189h-188v37v38h208h208h1h41h42l-188 -362l-189 -363h189h188v-37v-38h-208h-208h-1z" />
    <glyph glyph-name="quoteright" unicode="&#x2019;" horiz-adv-x="351" 
d="M0 671q25 25 48 70q29 57 29 109v75h75v-75q0 -72 -39 -147q-28 -54 -60 -85l-26 26z" />
    </font>
</defs>
</svg>
