<?xml version="1.0" encoding="UTF-8" standalone="no"?>
<!-- Generator: Adobe Illustrator 18.0.0, SVG Export Plug-In . SVG Version: 6.00 Build 0)  -->

<svg
   xmlns:dc="http://purl.org/dc/elements/1.1/"
   xmlns:cc="http://creativecommons.org/ns#"
   xmlns:rdf="http://www.w3.org/1999/02/22-rdf-syntax-ns#"
   xmlns:svg="http://www.w3.org/2000/svg"
   xmlns="http://www.w3.org/2000/svg"
   xmlns:sodipodi="http://sodipodi.sourceforge.net/DTD/sodipodi-0.dtd"
   xmlns:inkscape="http://www.inkscape.org/namespaces/inkscape"
   version="1.1"
   id="Capa_1"
   x="0px"
   y="0px"
   viewBox="0 0 301.055 301.055"
   style="enable-background:new 0 0 301.055 301.055;"
   xml:space="preserve"
   sodipodi:docname="mission.svg"
   inkscape:version="0.92.4 (5da689c313, 2019-01-14)"><metadata
   id="metadata264"><rdf:RDF><cc:Work
       rdf:about=""><dc:format>image/svg+xml</dc:format><dc:type
         rdf:resource="http://purl.org/dc/dcmitype/StillImage" /></cc:Work></rdf:RDF></metadata><defs
   id="defs262" /><sodipodi:namedview
   pagecolor="#ffffff"
   bordercolor="#666666"
   borderopacity="1"
   objecttolerance="10"
   gridtolerance="10"
   guidetolerance="10"
   inkscape:pageopacity="0"
   inkscape:pageshadow="2"
   inkscape:window-width="1920"
   inkscape:window-height="1016"
   id="namedview260"
   showgrid="false"
   inkscape:zoom="1.5678199"
   inkscape:cx="144.28133"
   inkscape:cy="198.10157"
   inkscape:window-x="0"
   inkscape:window-y="27"
   inkscape:window-maximized="1"
   inkscape:current-layer="Capa_1" />
<path
   d="M189.798,31.551c0-4.143-3.357-7.5-7.5-7.5h-79.453c-4.143,0-7.5,3.357-7.5,7.5v47.687c0,4.143,3.357,7.5,7.5,7.5h71.953  v21.186L102.845,179.9l-18.532-18.54c-1.571-1.571-3.769-2.362-5.97-2.168c-2.213,0.197-4.225,1.365-5.493,3.189L1.342,265.221  c-1.594,2.292-1.782,5.28-0.488,7.755c1.293,2.476,3.855,4.026,6.647,4.026h286.035c0.008,0.001,0.016,0.001,0.02,0  c4.143,0,7.5-3.357,7.5-7.5c0-1.783-0.622-3.421-1.661-4.708L189.798,108.66V31.551z M110.345,71.738V39.051h64.453v32.687H110.345z   M21.85,262.003l58.195-83.694l17.495,17.503c1.407,1.406,3.315,2.197,5.305,2.197c1.989,0,3.897-0.791,5.304-2.197l73.141-73.165  l97.818,139.357H21.85z"
   id="path227" />
<g
   id="g229">
</g>
<g
   id="g231">
</g>
<g
   id="g233">
</g>
<g
   id="g235">
</g>
<g
   id="g237">
</g>
<g
   id="g239">
</g>
<g
   id="g241">
</g>
<g
   id="g243">
</g>
<g
   id="g245">
</g>
<g
   id="g247">
</g>
<g
   id="g249">
</g>
<g
   id="g251">
</g>
<g
   id="g253">
</g>
<g
   id="g255">
</g>
<g
   id="g257">
</g>
<path
   style="fill:#4141ff;fill-opacity:0.91765334;stroke-width:0.63782835"
   d="m 110.08471,55.33143 0.17023,-16.424081 h 32.21033 32.21033 l 0.17023,16.424081 0.17022,16.424081 h -32.55078 -32.55078 z"
   id="path266"
   inkscape:connector-curvature="0" /></svg>