<?xml version="1.0" encoding="UTF-8" standalone="no"?>
<svg
   xmlns:dc="http://purl.org/dc/elements/1.1/"
   xmlns:cc="http://creativecommons.org/ns#"
   xmlns:rdf="http://www.w3.org/1999/02/22-rdf-syntax-ns#"
   xmlns:svg="http://www.w3.org/2000/svg"
   xmlns="http://www.w3.org/2000/svg"
   xmlns:sodipodi="http://sodipodi.sourceforge.net/DTD/sodipodi-0.dtd"
   xmlns:inkscape="http://www.inkscape.org/namespaces/inkscape"
   id="Capa_1"
   enable-background="new 0 0 512 512"
   height="512"
   viewBox="0 0 512 512"
   width="512"
   version="1.1"
   sodipodi:docname="value.svg"
   inkscape:version="0.92.4 (5da689c313, 2019-01-14)">
  <metadata
     id="metadata326">
    <rdf:RDF>
      <cc:Work
         rdf:about="">
        <dc:format>image/svg+xml</dc:format>
        <dc:type
           rdf:resource="http://purl.org/dc/dcmitype/StillImage" />
      </cc:Work>
    </rdf:RDF>
  </metadata>
  <defs
     id="defs324" />
  <sodipodi:namedview
     pagecolor="#ffffff"
     bordercolor="#666666"
     borderopacity="1"
     objecttolerance="10"
     gridtolerance="10"
     guidetolerance="10"
     inkscape:pageopacity="0"
     inkscape:pageshadow="2"
     inkscape:window-width="1920"
     inkscape:window-height="1016"
     id="namedview322"
     showgrid="false"
     inkscape:zoom="1.84375"
     inkscape:cx="156.78384"
     inkscape:cy="390.42837"
     inkscape:window-x="0"
     inkscape:window-y="27"
     inkscape:window-maximized="1"
     inkscape:current-layer="Capa_1" />
  <path
     d="m176.969 222h158.062c8.588 0 16.545-3.881 21.833-10.648s7.128-15.428 5.05-23.761l-11.804-47.339c-5.657-22.688-22.611-40.081-43.982-46.833 6.342-9.531 10.048-20.961 10.048-33.243 0-33.181-26.995-60.176-60.176-60.176s-60.176 26.995-60.176 60.177c0 12.282 3.706 23.711 10.048 33.243-21.371 6.752-38.325 24.145-43.982 46.833l-11.804 47.339c-2.078 8.333-.237 16.993 5.05 23.761s13.245 10.647 21.833 10.647zm79.031-192c16.639 0 30.176 13.537 30.176 30.177 0 16.639-13.537 30.176-30.176 30.176s-30.176-13.537-30.176-30.176c0-16.64 13.537-30.177 30.176-30.177zm-65.002 117.51c3.987-15.99 18.281-27.157 34.759-27.157h60.485c16.479 0 30.772 11.167 34.759 27.157l11.094 44.49h-152.19z"
     id="path317" />
  <path
     d="m511.622 152.172c-.053-22.846-17.175-42.301-39.827-45.255-13.05-1.706-26.208 2.302-36.098 10.985-9.89 8.685-15.562 21.213-15.562 34.374l.001 72.891c-.943-.06-1.893-.09-2.846-.09-11.844 0-22.979 4.612-31.353 12.987l-39.323 39.322c-.384.383-.917.565-1.453.506-.272-.031-.544-.055-.818-.071l-17.636-1.054c-14.64-1.549-28.988 3.517-39.418 13.945l-24.321 24.322c-2.532 2.531-4.85 5.218-6.967 8.027-2.117-2.81-4.436-5.496-6.967-8.027l-24.322-24.323c-10.429-10.427-24.771-15.492-39.417-13.944l-17.636 1.054c-.273.017-.546.04-.818.071-.545.061-1.069-.123-1.453-.505l-39.323-39.323c-8.375-8.375-19.509-12.987-31.353-12.987-.953 0-1.903.03-2.846.09l.001-72.891c0-13.161-5.671-25.689-15.562-34.374-9.89-8.685-23.047-12.692-36.098-10.985-22.653 2.954-39.775 22.409-39.828 45.255l-.379 165.334c-.039 17.244 6.932 34.128 19.125 46.321l95.875 95.874v27.299c0 13.785 11.215 25 25 25h106c3.555 0 6.935-.751 10-2.094 3.065 1.343 6.445 2.094 10 2.094h106c13.785 0 25-11.215 25-25v-27.299l95.875-95.874c12.193-12.193 19.164-29.077 19.125-46.321zm-39.96 190.442-100.268 100.268c-2.813 2.813-4.394 6.628-4.394 10.606v28.512h-96v-113.931c0-12.021 4.681-23.321 13.181-31.82l24.321-24.321c4.023-4.023 9.571-5.96 15.221-5.307.273.031.546.056.821.072l17.664 1.055c9.523.962 18.836-2.364 25.62-9.146l39.323-39.323c5.592-5.589 14.688-5.591 20.28 0 5.591 5.592 5.591 14.688 0 20.28l-56.036 56.036c-5.858 5.857-5.858 15.355 0 21.213 5.857 5.857 15.355 5.857 21.213 0l56.036-56.036c8.375-8.375 12.987-19.51 12.987-31.354 0-11.119-4.065-21.614-11.493-29.786l-.001-87.354c0-4.597 1.902-8.798 5.355-11.83 3.454-3.033 7.865-4.372 12.425-3.781 7.796 1.017 13.688 7.713 13.707 15.575l.376 165.332c.021 9.322-3.747 18.449-10.338 25.04zm-431.323 0c-6.591-6.592-10.359-15.719-10.338-25.04l.378-165.333c.018-7.863 5.911-14.56 13.707-15.576 4.559-.592 8.97.748 12.424 3.781 3.454 3.032 5.355 7.233 5.355 11.83l-.001 87.354c-7.428 8.172-11.493 18.667-11.493 29.786 0 11.844 4.612 22.979 12.987 31.354l56.036 56.036c5.857 5.857 15.355 5.857 21.213 0s5.858-15.355 0-21.213l-56.037-56.035c-5.591-5.592-5.591-14.688 0-20.28 5.592-5.59 14.688-5.589 20.28 0l39.324 39.324c6.782 6.782 16.093 10.108 25.619 9.146l17.664-1.055c.274-.017.548-.041.821-.072 5.647-.647 11.198 1.284 15.22 5.306l24.322 24.322c8.5 8.499 13.18 19.8 13.18 31.82v113.931h-96v-28.512c0-3.979-1.581-7.794-4.394-10.606z"
     id="path319" />
  <path
     style="fill:#4141ff;fill-opacity:0.91765334;stroke-width:0.54237288"
     d="m 180.10587,191.23427 c 0,-0.46521 2.57658,-11.14318 5.72572,-23.72881 6.85713,-27.40468 7.71705,-29.55499 14.59676,-36.50041 3.46574,-3.49884 5.29727,-4.85554 8.96566,-6.6413 8.79468,-4.28121 7.29735,-4.14805 46.64407,-4.14805 39.22997,0 37.91638,-0.11417 46.37288,4.0304 7.85605,3.85029 14.99778,11.86095 17.56506,19.70219 1.12044,3.42213 11.99426,46.55679 11.99426,47.57922 0,0.37258 -24.73643,0.5526 -75.9322,0.5526 -68.42144,0 -75.93221,-0.0837 -75.93221,-0.84584 z"
     id="path328"
     inkscape:connector-curvature="0" />
</svg>
