<?xml version="1.0" encoding="UTF-8" standalone="no"?>
<svg
   xmlns:dc="http://purl.org/dc/elements/1.1/"
   xmlns:cc="http://creativecommons.org/ns#"
   xmlns:rdf="http://www.w3.org/1999/02/22-rdf-syntax-ns#"
   xmlns:svg="http://www.w3.org/2000/svg"
   xmlns="http://www.w3.org/2000/svg"
   xmlns:sodipodi="http://sodipodi.sourceforge.net/DTD/sodipodi-0.dtd"
   xmlns:inkscape="http://www.inkscape.org/namespaces/inkscape"
   version="1.0"
   width="2676.000000pt"
   height="1655.000000pt"
   viewBox="0 0 2676.000000 1655.000000"
   preserveAspectRatio="xMidYMid meet"
   id="svg174"
   sodipodi:docname="logo_mmits.svg"
   inkscape:version="1.0 (4035a4fb49, 2020-05-01)">
  <defs
     id="defs178" />
  <sodipodi:namedview
     inkscape:document-rotation="0"
     pagecolor="#ffffff"
     bordercolor="#666666"
     borderopacity="1"
     objecttolerance="10"
     gridtolerance="10"
     guidetolerance="10"
     inkscape:pageopacity="0"
     inkscape:pageshadow="2"
     inkscape:window-width="1858"
     inkscape:window-height="1057"
     id="namedview176"
     showgrid="false"
     inkscape:zoom="0.25000001"
     inkscape:cx="1777.4664"
     inkscape:cy="1266.7808"
     inkscape:window-x="54"
     inkscape:window-y="-8"
     inkscape:window-maximized="1"
     inkscape:current-layer="svg174" />
  <metadata
     id="metadata146">
Created by potrace 1.16, written by Peter Selinger 2001-2019
<rdf:RDF>
  <cc:Work
     rdf:about="">
    <dc:format>image/svg+xml</dc:format>
    <dc:type
       rdf:resource="http://purl.org/dc/dcmitype/StillImage" />
    <dc:title></dc:title>
  </cc:Work>
</rdf:RDF>
</metadata>
  <g
     transform="translate(0.000000,1655.000000) scale(0.100000,-0.100000)"
     fill="#000000"
     stroke="none"
     id="g172"
     style="fill:#363636;fill-opacity:1">
    <path
       d="M0 15870 l0 -680 13380 0 13380 0 0 680 0 680 -13380 0 -13380 0 0 -680z"
       id="path148"
       style="fill:#363636;fill-opacity:1" />
    <path
       d="M3480 11278 c-190 -110 -534 -309 -765 -442 -231 -133 -762 -440 -1180 -681 -418 -241 -772 -446 -787 -454 l-28 -16 0 -277 0 -278 1052 -2 1052 -3 -105 -61 c-57 -34 -522 -303 -1034 -599 -511 -296 -936 -543 -943 -550 -11 -10 108 -82 590 -360 332 -191 803 -463 1047 -604 l444 -256 -1051 -3 -1052 -2 0 -308 0 -307 38 -21 c20 -11 660 -380 1422 -821 762 -440 1446 -835 1520 -877 l134 -77 41 22 c22 12 240 138 485 279 1041 600 1534 884 2010 1158 278 159 522 301 542 314 l37 23 1 307 0 308 -1052 2 -1051 3 444 256 c244 141 715 413 1047 604 482 278 601 350 590 360 -7 7 -431 254 -943 550 -511 296 -977 565 -1034 599 l-105 61 1052 3 1052 2 0 278 0 277 -813 469 c-446 258 -1120 648 -1497 866 -684 395 -798 461 -809 459 -3 0 -161 -91 -351 -201z m1055 -1850 c-34 -84 -89 -218 -123 -298 -33 -80 -101 -242 -150 -360 -50 -118 -120 -287 -157 -375 -37 -88 -100 -239 -140 -335 -79 -191 -157 -380 -270 -650 -40 -96 -114 -272 -163 -390 -49 -118 -120 -287 -157 -375 -36 -88 -91 -221 -122 -295 -30 -74 -58 -139 -62 -143 -4 -4 -49 -6 -99 -5 l-91 3 40 95 c23 52 71 169 108 260 38 91 96 233 130 315 35 83 100 240 146 350 46 110 111 268 145 350 35 83 89 213 120 290 32 77 92 223 134 325 43 102 114 273 158 380 45 107 116 279 159 381 43 103 92 222 110 265 17 44 58 143 91 222 l60 142 98 0 97 0 -62 -152z"
       id="path150"
       style="fill:#363636;fill-opacity:1" />
    <path
       d="M7560 7875 l0 -2455 530 0 530 0 0 1357 c0 812 4 1353 9 1347 5 -5 23 -34 40 -64 63 -113 81 -145 91 -160 21 -34 126 -217 137 -240 7 -14 17 -32 22 -40 30 -45 91 -153 91 -160 0 -5 6 -15 13 -22 7 -7 20 -26 29 -43 23 -45 192 -339 198 -345 3 -3 16 -27 30 -55 14 -27 28 -52 31 -55 4 -3 16 -23 28 -45 12 -22 32 -58 45 -80 47 -81 109 -191 124 -220 9 -16 18 -32 22 -35 5 -4 72 -121 103 -180 4 -8 20 -36 35 -61 58 -99 198 -340 212 -366 22 -40 101 -179 127 -221 12 -21 25 -44 29 -52 8 -15 87 -153 105 -180 5 -8 17 -30 26 -47 l17 -33 311 0 311 0 27 53 c36 68 72 133 102 182 14 22 41 69 60 105 20 36 46 82 58 102 22 38 115 201 130 228 4 8 18 31 30 51 12 21 44 77 72 125 27 49 55 98 62 109 6 11 20 36 31 55 42 76 76 135 81 140 3 3 17 28 31 55 14 28 27 52 31 55 3 3 32 52 64 110 32 58 69 123 81 145 13 22 35 60 49 85 14 25 37 63 50 85 13 22 28 47 32 55 14 27 107 191 128 226 11 18 34 60 52 93 18 32 46 81 62 107 17 27 39 65 49 84 11 19 38 69 62 110 24 41 51 91 62 110 10 19 30 53 43 75 14 22 37 64 52 93 15 28 31 52 35 52 4 0 8 -605 8 -1345 l0 -1345 525 0 525 0 0 2455 0 2455 -500 0 -500 0 -15 -32 c-9 -18 -21 -42 -28 -53 -6 -11 -55 -96 -107 -190 -52 -93 -100 -179 -107 -190 -6 -11 -20 -36 -31 -55 -31 -57 -172 -304 -182 -320 -6 -8 -16 -26 -23 -40 -7 -14 -31 -56 -53 -95 -23 -38 -53 -92 -68 -120 -15 -27 -37 -67 -49 -87 -12 -20 -49 -85 -82 -144 -33 -59 -72 -128 -87 -153 -15 -25 -34 -59 -42 -76 -9 -16 -20 -37 -26 -45 -10 -16 -109 -189 -142 -250 -10 -19 -29 -53 -41 -75 -13 -22 -65 -114 -117 -205 -52 -91 -103 -181 -114 -201 -12 -20 -43 -77 -70 -125 -27 -49 -52 -91 -55 -94 -3 -3 -19 -30 -34 -60 -16 -30 -39 -71 -50 -91 -12 -20 -47 -81 -77 -135 -30 -53 -70 -123 -87 -153 -18 -31 -38 -67 -45 -81 -6 -14 -17 -32 -24 -40 -6 -8 -35 -60 -64 -115 -75 -143 -71 -141 -119 -54 -23 41 -53 92 -66 114 -14 22 -40 69 -60 105 -19 36 -46 83 -60 105 -13 22 -33 56 -43 75 -11 19 -38 69 -62 110 -23 41 -50 89 -58 105 -9 17 -19 32 -22 35 -4 3 -17 23 -29 45 -12 22 -32 58 -45 80 -12 22 -49 87 -81 145 -32 58 -61 107 -64 110 -4 3 -17 28 -31 55 -14 28 -28 52 -31 55 -4 3 -16 23 -28 45 -12 22 -33 58 -45 80 -46 78 -109 190 -124 220 -9 17 -18 32 -22 35 -4 3 -14 19 -22 35 -14 27 -53 96 -114 203 -12 20 -46 81 -78 134 -31 54 -56 100 -56 103 0 3 -5 11 -11 18 -5 7 -55 91 -109 187 -54 96 -103 180 -107 185 -5 6 -16 24 -25 40 -8 17 -35 64 -58 105 -24 41 -51 91 -62 110 -10 19 -27 49 -37 65 -30 49 -63 108 -79 140 -9 17 -18 32 -22 35 -4 3 -13 19 -22 35 -14 28 -117 211 -138 245 -5 8 -23 39 -40 68 l-30 52 -510 0 -510 0 0 -2455z"
       id="path152"
       style="fill:#363636;fill-opacity:1" />
    <path
       d="M13560 7875 l0 -2455 525 0 525 0 0 1355 c0 745 3 1355 8 1355 4 0 23 -28 42 -62 19 -35 40 -72 47 -83 7 -11 18 -31 25 -45 11 -21 38 -66 93 -158 9 -15 87 -152 125 -220 23 -41 102 -178 127 -220 12 -20 36 -62 53 -92 17 -30 43 -76 58 -101 15 -26 49 -86 77 -135 27 -49 54 -97 60 -106 55 -92 82 -137 93 -158 7 -14 18 -34 25 -45 7 -11 32 -56 56 -100 25 -44 47 -82 51 -85 4 -3 13 -18 22 -35 13 -26 42 -77 122 -218 11 -20 45 -78 74 -127 28 -50 52 -93 52 -96 0 -3 5 -10 11 -17 6 -7 55 -91 109 -187 55 -96 106 -184 115 -195 8 -10 15 -23 15 -27 0 -4 18 -37 40 -73 22 -36 40 -69 40 -73 1 -4 9 -17 19 -29 19 -23 20 -23 323 -23 l303 0 15 23 c8 12 19 31 25 42 26 47 102 180 120 211 11 18 35 62 54 96 18 35 41 74 50 88 28 44 40 64 59 100 11 19 38 69 62 110 23 41 50 89 58 105 9 17 18 32 22 35 4 3 13 19 22 35 14 28 73 133 122 217 33 58 120 211 129 228 4 8 18 31 30 51 12 21 44 77 72 125 27 49 55 98 62 109 7 11 19 34 28 50 8 17 30 55 49 85 19 30 47 80 63 110 15 30 30 57 34 60 3 3 25 41 49 85 24 44 47 82 52 83 4 2 8 8 8 12 0 8 77 148 137 248 12 20 26 44 30 52 15 28 108 192 130 229 12 20 30 52 40 71 18 34 18 1 21 -1312 l2 -1348 530 0 530 0 0 2455 0 2455 -501 -2 -502 -3 -45 -80 c-25 -44 -53 -96 -64 -115 -10 -19 -29 -53 -42 -75 -13 -22 -38 -67 -57 -101 -19 -33 -56 -100 -84 -148 -27 -49 -59 -105 -71 -125 -11 -20 -55 -97 -96 -171 -42 -74 -85 -151 -97 -170 -12 -19 -28 -51 -37 -70 -9 -19 -19 -37 -23 -40 -4 -3 -14 -18 -23 -35 -8 -16 -40 -73 -70 -126 -30 -52 -58 -102 -62 -110 -4 -8 -18 -32 -31 -54 -13 -22 -33 -56 -43 -75 -11 -19 -38 -69 -62 -110 -24 -41 -51 -91 -62 -110 -11 -19 -31 -56 -46 -81 -15 -25 -54 -94 -87 -154 -33 -59 -70 -124 -81 -144 -12 -20 -30 -52 -41 -71 -26 -47 -143 -253 -170 -298 -11 -20 -34 -62 -50 -92 -15 -30 -31 -57 -34 -60 -3 -3 -37 -61 -75 -130 -38 -69 -74 -134 -81 -145 -6 -11 -20 -36 -31 -55 -11 -19 -44 -78 -74 -130 -30 -52 -57 -102 -62 -110 -4 -8 -18 -33 -31 -55 -14 -22 -32 -55 -40 -73 -19 -39 -28 -35 -60 26 -28 52 -41 74 -66 112 -9 14 -31 53 -50 88 -19 34 -43 78 -54 96 -21 35 -114 199 -128 226 -4 8 -19 33 -32 55 -13 22 -37 62 -52 89 -15 27 -33 56 -38 65 -6 9 -33 56 -60 105 -28 48 -60 104 -72 125 -12 20 -26 43 -30 51 -14 27 -104 185 -113 200 -15 24 -95 164 -103 180 -5 8 -18 31 -30 51 -12 21 -44 77 -72 125 -27 49 -54 97 -60 106 -64 110 -233 404 -245 426 -22 39 -101 178 -127 220 -12 21 -25 44 -29 52 -9 18 -90 159 -104 180 -5 8 -18 31 -28 50 -26 47 -94 167 -120 210 -11 19 -42 73 -69 120 -26 47 -52 93 -58 102 -26 43 -112 194 -128 224 l-17 34 -510 0 -510 0 0 -2455z"
       id="path154"
       style="fill:#363636;fill-opacity:1" />
    <path
       d="M19560 7875 l0 -2455 530 0 530 0 0 2455 0 2455 -530 0 -530 0 0 -2455z"
       id="path156"
       style="fill:#363636;fill-opacity:1" />
    <path
       d="M20770 9800 l0 -530 433 -2 432 -3 0 -1923 0 -1922 528 0 527 0 0 1925 0 1925 440 0 440 0 0 530 0 530 -1400 0 -1400 0 0 -530z"
       id="path158"
       style="fill:#363636;fill-opacity:1" />
    <path
       d="M24795 10310 c-155 -23 -288 -63 -425 -128 -72 -34 -162 -87 -192 -111 -12 -11 -51 -43 -86 -71 -56 -46 -181 -185 -191 -213 -2 -6 -11 -19 -21 -29 -23 -26 -85 -153 -117 -244 l-28 -79 0 -600 0 -600 34 -63 c53 -97 151 -196 246 -248 35 -19 197 -107 270 -146 112 -60 134 -72 245 -135 58 -32 161 -87 230 -122 200 -100 274 -139 286 -150 7 -5 29 -17 50 -26 21 -9 41 -20 44 -24 3 -5 28 -21 55 -35 209 -113 370 -242 441 -353 19 -29 34 -59 34 -67 0 -14 -97 -117 -150 -159 -49 -39 -185 -102 -261 -122 -35 -9 -70 -20 -79 -25 -8 -5 -45 -11 -80 -15 -36 -4 -85 -11 -110 -17 -28 -7 -270 -12 -652 -15 l-608 -4 0 -540 0 -539 593 0 c367 0 622 4 672 11 155 21 310 66 440 130 134 66 200 115 317 237 73 76 103 113 156 197 43 69 108 239 120 315 4 25 7 308 7 630 l0 585 -33 57 c-18 31 -52 78 -75 104 -41 47 -207 164 -232 164 -8 0 -20 7 -29 15 -8 9 -30 23 -48 31 -18 9 -55 28 -83 44 -27 15 -75 40 -105 56 -30 15 -80 42 -110 60 -81 46 -176 97 -345 184 -204 105 -309 161 -396 214 -41 25 -102 62 -136 81 -35 20 -63 40 -63 44 0 4 -17 17 -37 29 -64 35 -149 119 -192 187 -23 35 -41 68 -41 73 0 24 68 97 133 145 122 89 176 115 347 160 179 49 314 57 908 57 l542 0 0 545 0 545 -562 -1 c-484 -1 -580 -4 -683 -19z"
       id="path160"
       style="fill:#363636;fill-opacity:1" />
    <path
       d="M720 8790 l0 -281 33 17 c17 9 156 83 307 164 151 82 374 200 495 264 l220 116 -527 0 -528 0 0 -280z"
       id="path162"
       style="fill:#363636;fill-opacity:1" />
    <path
       d="M6115 8954 c121 -64 344 -182 495 -264 151 -81 290 -155 308 -164 l32 -17 0 281 0 280 -527 0 -528 0 220 -116z"
       id="path164"
       style="fill:#363636;fill-opacity:1" />
    <path
       d="M720 7025 l0 -275 527 0 c289 0 524 2 522 4 -2 2 -60 32 -129 67 -69 34 -267 138 -440 229 -173 92 -352 186 -397 209 l-83 41 0 -275z"
       id="path166"
       style="fill:#363636;fill-opacity:1" />
    <path
       d="M6875 7263 c-38 -20 -216 -113 -395 -207 -179 -95 -382 -201 -453 -237 l-127 -64 522 -3 c286 -1 523 -1 525 1 2 2 2 126 1 274 l-3 271 -70 -35z"
       id="path168"
       style="fill:#363636;fill-opacity:1" />
    <path
       d="M0 680 l0 -680 13380 0 13380 0 0 680 0 680 -13380 0 -13380 0 0 -680z"
       id="path170"
       style="fill:#363636;fill-opacity:1" />
  </g>
  <rect
     style="fill:#0000ff;stroke-width:0.75"
     id="rect204"
     width="105.49668"
     height="385.51328"
     x="2163.5037"
     y="727.48669"
     ry="0" />
  <rect
     style="fill:#0000ff;stroke-width:0.75"
     id="rect212"
     width="87.999756"
     height="106.0011"
     x="2269.0002"
     y="621.9989"
     ry="0" />
  <rect
     ry="0"
     y="624.01678"
     x="2076.5703"
     height="106.00111"
     width="87.999763"
     id="rect212-5"
     style="fill:#0000ff;stroke-width:0.75" />
  <rect
     style="fill:#4141ff;fill-opacity:1;stroke-width:0.75"
     id="rect231"
     width="106"
     height="491"
     x="1956"
     y="622" />
  <path
     style="fill:#4141ff;fill-opacity:1;stroke-width:2"
     d="m 2886.234,1226.5948 v -257 h -58 -58 v -70 -70 h 186 186 v 70 70 h -59 -59 v 257 257 h -69 -69 z"
     id="path1056"
     transform="scale(0.74999999)" />
  <path
     style="fill:#363636;fill-opacity:1;stroke-width:4"
     d="M 301.56054,1512.5734 96.560543,1394.1168 v -39.3979 -39.3979 l 140.999997,-0.1272 c 117.33035,-0.106 139.83811,-1.0096 134.07864,-5.3834 -3.80675,-2.891 -65.38663,-39.1191 -136.84419,-80.5069 -71.45756,-41.3878 -129.16032,-76.4844 -128.22835,-77.9923 0.93197,-1.508 62.02237,-37.6726 135.75646,-80.366 73.73408,-42.6933 134.10145,-78.97416 134.14971,-80.62416 0.0482,-1.65 -62.91227,-3 -139.91227,-3 H 96.560543 l 0.07418,-35 0.07418,-35 110.925817,-63.75834 c 61.0092,-35.06709 154.40978,-88.79778 207.55684,-119.40153 l 96.63102,-55.64319 147.36896,85.11298 c 81.05296,46.81214 173.919,100.42084 206.369,119.13045 l 59,34.01747 v 35.27108 35.27108 H 784.32446 c -77.12984,0 -139.32744,1.47015 -138.21692,3.267 1.11048,1.79685 62.38496,38.24686 136.16548,80.99996 73.78052,42.7532 134.17812,78.907 134.21696,80.3419 0.0748,2.7687 -48.2702,31.5579 -187.92944,111.911 l -86,49.4801 141.13936,1.0514 141.13936,1.0513 -1.13936,40.5223 -1.13936,40.5223 -203.58448,117.4263 c -111.97148,64.5846 -205.57148,117.361 -208,117.2809 -2.42856,-0.08 -96.66552,-53.451 -209.41552,-118.6021 z M 427.30602,1378.321 c 1.76969,-2.75 44.90181,-104.9 95.84916,-227 l 92.63156,-221.99996 -14.0144,-1.26538 c -7.70788,-0.69596 -14.9162,-0.36356 -16.0184,0.73866 -4.57456,4.57453 -187.85282,450.53398 -185.94314,452.44368 4.12137,4.1213 24.34671,1.9756 27.49522,-2.917 z"
     id="path1058"
     transform="scale(0.74999999)" />
  <path
     style="fill:#363636;fill-opacity:1;stroke-width:4"
     d="M 1008.5605,1157.321 V 831.32104 l 67,0.024 67,0.024 34.8745,60.97598 c 162.3837,283.91888 219.2832,380.97588 223.3463,380.97588 4.2014,0 251.668,-431.53494 251.7473,-438.99994 0.018,-1.65 29.7319,-3 66.0319,-3 h 66 v 325.99994 326 h -68 -68 v -180 c 0,-99 -1.35,-179.9419 -3,-179.8708 -1.65,0.071 -48.9,81.0594 -105,179.9743 l -102,179.8452 -39.5654,-0.9743 -39.5654,-0.9744 -102.4346,-178.8481 c -56.339,-98.3665 -103.7846,-178.9165 -105.4346,-179 -1.65,-0.083 -3,80.8481 -3,179.8481 v 180 h -70 -70 z"
     id="path1060"
     transform="scale(0.74999999)" />
  <path
     transform="scale(0.74999999)"
     id="path849"
     d="m 406.5123,1368.362 c 2.44896,-5.8336 28.71127,-69.155 58.36067,-140.7142 29.64941,-71.5592 69.52832,-167.655 88.61981,-213.5463 l 34.7118,-83.43857 11.54228,-0.86608 11.54229,-0.86607 -17.86814,43.29248 c -9.82748,23.81086 -51.95543,125.06934 -93.61767,225.01894 l -75.74953,181.7264 h -10.99709 -10.99709 z"
     style="fill:#ffffff;stroke-width:2.82843" />
</svg>
