<?xml version="1.0" standalone="no"?>
<!DOCTYPE svg PUBLIC "-//W3C//DTD SVG 20010904//EN"
 "http://www.w3.org/TR/2001/REC-SVG-20010904/DTD/svg10.dtd">
<svg version="1.0" xmlns="http://www.w3.org/2000/svg"
 width="623.000000pt" height="720.000000pt" viewBox="0 0 623.000000 720.000000"
 preserveAspectRatio="xMidYMid meet">
<metadata>
Created by potrace 1.16, written by Peter Selinger 2001-2019
</metadata>
<g transform="translate(0.000000,720.000000) scale(0.100000,-0.100000)"
fill="#000000" stroke="none">
<path d="M2760 6998 c-190 -110 -534 -309 -765 -442 -231 -133 -762 -440
-1180 -681 -418 -241 -772 -446 -787 -454 l-28 -16 0 -277 0 -278 1052 -2
1052 -3 -105 -61 c-57 -34 -522 -303 -1034 -599 -512 -296 -936 -543 -943
-550 -11 -10 108 -82 590 -360 332 -191 803 -463 1047 -604 l444 -256 -1051
-3 -1052 -2 0 -308 0 -307 38 -21 c20 -11 660 -380 1422 -821 762 -440 1446
-835 1520 -877 l134 -77 41 22 c22 12 240 138 485 279 1041 600 1534 884 2010
1158 278 159 522 301 542 314 l37 23 1 307 0 308 -1052 2 -1051 3 444 256
c244 141 715 413 1047 604 482 278 601 350 590 360 -7 7 -431 254 -943 550
-511 296 -977 565 -1034 599 l-105 61 1052 3 1052 2 0 278 0 277 -813 469
c-446 258 -1120 648 -1497 866 -684 395 -798 461 -809 459 -3 0 -161 -91 -351
-201z m1055 -1850 c-34 -84 -89 -218 -123 -298 -33 -80 -101 -242 -150 -360
-50 -118 -120 -287 -157 -375 -37 -88 -100 -239 -140 -335 -79 -191 -157 -380
-270 -650 -40 -96 -114 -272 -163 -390 -49 -118 -120 -287 -157 -375 -36 -88
-91 -221 -122 -295 -30 -74 -58 -139 -62 -143 -4 -4 -49 -6 -99 -5 l-91 3 40
95 c23 52 71 169 108 260 38 91 96 233 130 315 35 83 100 240 146 350 46 110
111 268 145 350 35 83 89 213 120 290 32 77 92 223 134 325 43 102 114 273
158 380 45 107 116 279 159 381 43 103 92 222 110 265 17 44 58 143 91 222
l60 142 98 0 97 0 -62 -152z"/>
<path d="M0 4510 l0 -281 33 17 c17 9 156 83 307 164 151 82 374 200 495 264
l220 116 -527 0 -528 0 0 -280z"/>
<path d="M5395 4674 c121 -64 344 -182 495 -264 151 -81 290 -155 308 -164
l32 -17 0 281 0 280 -527 0 -528 0 220 -116z"/>
<path d="M0 2745 l0 -275 527 0 c289 0 524 2 522 4 -2 2 -60 32 -129 67 -69
34 -267 138 -440 229 -173 92 -352 186 -397 209 l-83 41 0 -275z"/>
<path d="M6155 2983 c-38 -20 -216 -113 -395 -207 -179 -95 -382 -201 -453
-237 l-127 -64 522 -3 c286 -1 523 -1 525 1 2 2 2 126 1 274 l-3 271 -70 -35z"/>
</g>
</svg>
